<svg width="48" height="48" viewBox="0 0 48 48" fill="none" xmlns="http://www.w3.org/2000/svg">
<mask id="mask0_613_147256" style="mask-type:alpha" maskUnits="userSpaceOnUse" x="0" y="0" width="48" height="48">
<rect width="48" height="48" fill="#D9D9D9"/>
</mask>
<g mask="url(#mask0_613_147256)">
<path d="M22.0054 25.9973V31.9973C22.0054 32.564 22.197 33.039 22.5804 33.4223C22.9637 33.8056 23.4387 33.9973 24.0054 33.9973C24.572 33.9973 25.047 33.8056 25.4304 33.4223C25.8137 33.039 26.0054 32.564 26.0054 31.9973V25.9973H32.0054C32.572 25.9973 33.047 25.8056 33.4304 25.4223C33.8137 25.039 34.0054 24.564 34.0054 23.9973C34.0054 23.4306 33.8137 22.9556 33.4304 22.5723C33.047 22.189 32.572 21.9973 32.0054 21.9973H26.0054V15.9973C26.0054 15.4306 25.8137 14.9556 25.4304 14.5723C25.047 14.189 24.572 13.9973 24.0054 13.9973C23.4387 13.9973 22.9637 14.189 22.5804 14.5723C22.197 14.9556 22.0054 15.4306 22.0054 15.9973V21.9973H16.0054C15.4387 21.9973 14.9637 22.189 14.5804 22.5723C14.197 22.9556 14.0054 23.4306 14.0054 23.9973C14.0054 24.564 14.197 25.039 14.5804 25.4223C14.9637 25.8056 15.4387 25.9973 16.0054 25.9973H22.0054ZM24.0054 43.9973C21.2387 43.9973 18.6387 43.4723 16.2054 42.4223C13.772 41.3723 11.6554 39.9473 9.85537 38.1473C8.05537 36.3473 6.63037 34.2306 5.58037 31.7973C4.53037 29.364 4.00537 26.764 4.00537 23.9973C4.00537 21.2306 4.53037 18.6306 5.58037 16.1973C6.63037 13.764 8.05537 11.6473 9.85537 9.84731C11.6554 8.04731 13.772 6.62231 16.2054 5.57231C18.6387 4.52231 21.2387 3.99731 24.0054 3.99731C26.772 3.99731 29.372 4.52231 31.8054 5.57231C34.2387 6.62231 36.3554 8.04731 38.1554 9.84731C39.9554 11.6473 41.3804 13.764 42.4304 16.1973C43.4804 18.6306 44.0054 21.2306 44.0054 23.9973C44.0054 26.764 43.4804 29.364 42.4304 31.7973C41.3804 34.2306 39.9554 36.3473 38.1554 38.1473C36.3554 39.9473 34.2387 41.3723 31.8054 42.4223C29.372 43.4723 26.772 43.9973 24.0054 43.9973ZM24.0054 39.9973C28.472 39.9973 32.2554 38.4473 35.3554 35.3473C38.4554 32.2473 40.0054 28.464 40.0054 23.9973C40.0054 19.5306 38.4554 15.7473 35.3554 12.6473C32.2554 9.54731 28.472 7.99731 24.0054 7.99731C19.5387 7.99731 15.7554 9.54731 12.6554 12.6473C9.55537 15.7473 8.00537 19.5306 8.00537 23.9973C8.00537 28.464 9.55537 32.2473 12.6554 35.3473C15.7554 38.4473 19.5387 39.9973 24.0054 39.9973Z" fill="url(#paint0_linear_613_147256)"/>
</g>
<defs>
<linearGradient id="paint0_linear_613_147256" x1="44.0054" y1="3.99731" x2="8.34871" y2="46.4457" gradientUnits="userSpaceOnUse">
<stop stop-color="#FFA533"/>
<stop offset="0.32" stop-color="#FF4049"/>
<stop offset="0.66" stop-color="#C759DD"/>
<stop offset="1" stop-color="#1A8CFF"/>
</linearGradient>
</defs>
</svg>
