<svg width="37" height="40" viewBox="0 0 37 40" fill="none" xmlns="http://www.w3.org/2000/svg">
<path d="M16.334 0.300781C16.6007 0.300781 16.8423 0.317448 17.059 0.350781C17.2757 0.384115 17.5007 0.450781 17.734 0.550781L29.734 5.05078C30.5007 5.35078 31.1257 5.83412 31.609 6.50078C32.0923 7.16745 32.334 7.91745 32.334 8.75078V15.0008C32.334 15.5674 32.1423 16.0424 31.759 16.4258C31.3757 16.8091 30.9007 17.0008 30.334 17.0008C29.7673 17.0008 29.2923 16.8091 28.909 16.4258C28.5257 16.0424 28.334 15.5674 28.334 15.0008V8.80078L16.334 4.30078L4.33398 8.80078V18.2008C4.33398 19.8674 4.57565 21.5341 5.05898 23.2008C5.54232 24.8674 6.20898 26.4508 7.05898 27.9508C7.90898 29.4508 8.94232 30.8008 10.159 32.0008C11.3757 33.2008 12.7007 34.1841 14.134 34.9508C14.634 35.2174 14.9923 35.6008 15.209 36.1008C15.4257 36.6008 15.434 37.1008 15.234 37.6008C15.0007 38.1341 14.6257 38.5008 14.109 38.7008C13.5923 38.9008 13.084 38.8674 12.584 38.6008C8.81732 36.7341 5.83398 33.9174 3.63398 30.1508C1.43398 26.3841 0.333984 22.4008 0.333984 18.2008V8.75078C0.333984 7.91745 0.575651 7.16745 1.05898 6.50078C1.54232 5.83412 2.16732 5.35078 2.93398 5.05078L14.934 0.550781C15.1673 0.450781 15.4007 0.384115 15.634 0.350781C15.8673 0.317448 16.1007 0.300781 16.334 0.300781ZM26.334 40.0008C23.5673 40.0008 21.209 39.0258 19.259 37.0758C17.309 35.1258 16.334 32.7674 16.334 30.0008C16.334 27.2341 17.309 24.8758 19.259 22.9258C21.209 20.9758 23.5673 20.0008 26.334 20.0008C29.1007 20.0008 31.459 20.9758 33.409 22.9258C35.359 24.8758 36.334 27.2341 36.334 30.0008C36.334 32.7674 35.359 35.1258 33.409 37.0758C31.459 39.0258 29.1007 40.0008 26.334 40.0008ZM26.334 30.0008C27.1673 30.0008 27.8757 29.7091 28.459 29.1258C29.0423 28.5424 29.334 27.8341 29.334 27.0008C29.334 26.1674 29.0423 25.4591 28.459 24.8758C27.8757 24.2924 27.1673 24.0008 26.334 24.0008C25.5007 24.0008 24.7923 24.2924 24.209 24.8758C23.6257 25.4591 23.334 26.1674 23.334 27.0008C23.334 27.8341 23.6257 28.5424 24.209 29.1258C24.7923 29.7091 25.5007 30.0008 26.334 30.0008ZM26.334 36.0008C27.1673 36.0008 27.9507 35.8424 28.684 35.5258C29.4173 35.2091 30.0673 34.7508 30.634 34.1508C30.8007 33.9508 30.8673 33.7258 30.834 33.4758C30.8007 33.2258 30.6507 33.0341 30.384 32.9008C29.7507 32.6008 29.0923 32.3758 28.409 32.2258C27.7257 32.0758 27.034 32.0008 26.334 32.0008C25.634 32.0008 24.9423 32.0758 24.259 32.2258C23.5757 32.3758 22.9173 32.6008 22.284 32.9008C22.0173 33.0341 21.8673 33.2258 21.834 33.4758C21.8007 33.7258 21.8673 33.9508 22.034 34.1508C22.6007 34.7508 23.2507 35.2091 23.984 35.5258C24.7173 35.8424 25.5007 36.0008 26.334 36.0008Z" fill="url(#paint0_linear_2079_3150)"/>
<defs>
<linearGradient id="paint0_linear_2079_3150" x1="36.334" y1="0.300781" x2="0.510417" y2="38.9732" gradientUnits="userSpaceOnUse">
<stop stop-color="#FFBB66"/>
<stop offset="0.32" stop-color="#FF8086"/>
<stop offset="0.66" stop-color="#CB6FDD"/>
<stop offset="1" stop-color="#80BFFF"/>
</linearGradient>
</defs>
</svg>
