<svg width="48" height="48" viewBox="0 0 48 48" fill="none" xmlns="http://www.w3.org/2000/svg">
<mask id="mask0_613_147261" style="mask-type:alpha" maskUnits="userSpaceOnUse" x="0" y="0" width="48" height="48">
<rect width="48" height="48" fill="#D9D9D9"/>
</mask>
<g mask="url(#mask0_613_147261)">
<path d="M11 34.9973C7.93333 34.9973 5.33333 33.9307 3.2 31.7973C1.06667 29.664 0 27.064 0 23.9973C0 20.9306 1.06667 18.3306 3.2 16.1973C5.33333 14.064 7.93333 12.9973 11 12.9973C12.2333 12.9973 13.4167 13.214 14.55 13.6473C15.6833 14.0806 16.7 14.6973 17.6 15.4973L21 18.5973L18 21.2973L14.9 18.4973C14.3667 18.0306 13.7667 17.664 13.1 17.3973C12.4333 17.1306 11.7333 16.9973 11 16.9973C9.06667 16.9973 7.41667 17.6806 6.05 19.0473C4.68333 20.414 4 22.064 4 23.9973C4 25.9307 4.68333 27.5807 6.05 28.9473C7.41667 30.314 9.06667 30.9973 11 30.9973C11.7333 30.9973 12.4333 30.864 13.1 30.5973C13.7667 30.3307 14.3667 29.964 14.9 29.4973L30.4 15.4973C31.3 14.6973 32.3167 14.0806 33.45 13.6473C34.5833 13.214 35.7667 12.9973 37 12.9973C40.0667 12.9973 42.6667 14.064 44.8 16.1973C46.9333 18.3306 48 20.9306 48 23.9973C48 27.064 46.9333 29.664 44.8 31.7973C42.6667 33.9307 40.0667 34.9973 37 34.9973C35.7667 34.9973 34.5833 34.7807 33.45 34.3473C32.3167 33.914 31.3 33.2973 30.4 32.4973L27 29.3973L30 26.6973L33.1 29.4973C33.6333 29.964 34.2333 30.3307 34.9 30.5973C35.5667 30.864 36.2667 30.9973 37 30.9973C38.9333 30.9973 40.5833 30.314 41.95 28.9473C43.3167 27.5807 44 25.9307 44 23.9973C44 22.064 43.3167 20.414 41.95 19.0473C40.5833 17.6806 38.9333 16.9973 37 16.9973C36.2667 16.9973 35.5667 17.1306 34.9 17.3973C34.2333 17.664 33.6333 18.0306 33.1 18.4973L17.6 32.4973C16.7 33.2973 15.6833 33.914 14.55 34.3473C13.4167 34.7807 12.2333 34.9973 11 34.9973Z" fill="url(#paint0_linear_613_147261)"/>
</g>
<defs>
<linearGradient id="paint0_linear_613_147261" x1="48" y1="12.9973" x2="34.6483" y2="47.6769" gradientUnits="userSpaceOnUse">
<stop stop-color="#FFA533"/>
<stop offset="0.32" stop-color="#FF4049"/>
<stop offset="0.66" stop-color="#C759DD"/>
<stop offset="1" stop-color="#1A8CFF"/>
</linearGradient>
</defs>
</svg>
