<svg width="41" height="36" viewBox="0 0 41 36" fill="none" xmlns="http://www.w3.org/2000/svg">
<path d="M11.1308 28.5C9.73083 29.6667 8.2725 30.2 6.75583 30.1C5.23916 30 3.91416 29.4833 2.78083 28.55C1.6475 27.6167 0.872498 26.3917 0.455831 24.875C0.0391645 23.3583 0.314164 21.8 1.28083 20.2L5.03083 14C4.1975 13.2667 3.53916 12.3833 3.05583 11.35C2.5725 10.3167 2.33083 9.2 2.33083 8C2.33083 5.8 3.11416 3.91667 4.68083 2.35C6.2475 0.783333 8.13083 0 10.3308 0C12.5308 0 14.4142 0.783333 15.9808 2.35C17.5475 3.91667 18.3308 5.8 18.3308 8C18.3308 10.2 17.5475 12.0833 15.9808 13.65C14.4142 15.2167 12.5308 16 10.3308 16C10.0308 16 9.73083 15.9833 9.43083 15.95C9.13083 15.9167 8.8475 15.8667 8.58083 15.8L4.73083 22.3C4.36416 22.9 4.2475 23.4917 4.38083 24.075C4.51416 24.6583 4.7975 25.1333 5.23083 25.5C5.66417 25.8667 6.18083 26.075 6.78083 26.125C7.38083 26.175 7.96417 25.9667 8.53083 25.5L29.5308 7.45C30.9308 6.28333 32.3975 5.75833 33.9308 5.875C35.4642 5.99167 36.7975 6.51667 37.9308 7.45C39.0642 8.38333 39.8308 9.60833 40.2308 11.125C40.6308 12.6417 40.3475 14.2 39.3808 15.8L35.6308 22C36.4642 22.7333 37.1225 23.6167 37.6058 24.65C38.0892 25.6833 38.3308 26.8 38.3308 28C38.3308 30.2 37.5475 32.0833 35.9808 33.65C34.4142 35.2167 32.5308 36 30.3308 36C28.1308 36 26.2475 35.2167 24.6808 33.65C23.1142 32.0833 22.3308 30.2 22.3308 28C22.3308 25.8 23.1142 23.9167 24.6808 22.35C26.2475 20.7833 28.1308 20 30.3308 20C30.6308 20 30.9225 20.0167 31.2058 20.05C31.4892 20.0833 31.7642 20.1333 32.0308 20.2L35.9308 13.7C36.2975 13.1 36.4142 12.5083 36.2808 11.925C36.1475 11.3417 35.8642 10.8667 35.4308 10.5C34.9975 10.1333 34.4808 9.925 33.8808 9.875C33.2808 9.825 32.6975 10.0333 32.1308 10.5L11.1308 28.5ZM30.3308 32C31.4308 32 32.3725 31.6083 33.1558 30.825C33.9392 30.0417 34.3308 29.1 34.3308 28C34.3308 26.9 33.9392 25.9583 33.1558 25.175C32.3725 24.3917 31.4308 24 30.3308 24C29.2308 24 28.2892 24.3917 27.5058 25.175C26.7225 25.9583 26.3308 26.9 26.3308 28C26.3308 29.1 26.7225 30.0417 27.5058 30.825C28.2892 31.6083 29.2308 32 30.3308 32ZM10.3308 12C11.4308 12 12.3725 11.6083 13.1558 10.825C13.9392 10.0417 14.3308 9.1 14.3308 8C14.3308 6.9 13.9392 5.95833 13.1558 5.175C12.3725 4.39167 11.4308 4 10.3308 4C9.23083 4 8.28917 4.39167 7.50583 5.175C6.7225 5.95833 6.33083 6.9 6.33083 8C6.33083 9.1 6.7225 10.0417 7.50583 10.825C8.28917 11.6083 9.23083 12 10.3308 12Z" fill="url(#paint0_linear_2079_2928)"/>
<defs>
<linearGradient id="paint0_linear_2079_2928" x1="40.4064" y1="0" x2="9.09048" y2="41.567" gradientUnits="userSpaceOnUse">
<stop stop-color="#FFBB66"/>
<stop offset="0.32" stop-color="#FF8086"/>
<stop offset="0.66" stop-color="#CB6FDD"/>
<stop offset="1" stop-color="#80BFFF"/>
</linearGradient>
</defs>
</svg>
