<svg width="45" height="32" viewBox="0 0 45 32" fill="none" xmlns="http://www.w3.org/2000/svg">
<path d="M19.0301 26L30.3301 14.7L27.4301 11.8L18.9801 20.25L14.7801 16.05L11.9301 18.9L19.0301 26ZM11.3301 32C8.29674 32 5.70508 30.95 3.55508 28.85C1.40508 26.75 0.330078 24.1833 0.330078 21.15C0.330078 18.55 1.11341 16.2333 2.68008 14.2C4.24675 12.1667 6.29674 10.8667 8.83008 10.3C9.66341 7.23333 11.3301 4.75 13.8301 2.85C16.3301 0.95 19.1634 0 22.3301 0C26.2301 0 29.5384 1.35833 32.2551 4.075C34.9717 6.79167 36.3301 10.1 36.3301 14C38.6301 14.2667 40.5384 15.2583 42.0551 16.975C43.5717 18.6917 44.3301 20.7 44.3301 23C44.3301 25.5 43.4551 27.625 41.7051 29.375C39.9551 31.125 37.8301 32 35.3301 32H11.3301ZM11.3301 28H35.3301C36.7301 28 37.9134 27.5167 38.8801 26.55C39.8467 25.5833 40.3301 24.4 40.3301 23C40.3301 21.6 39.8467 20.4167 38.8801 19.45C37.9134 18.4833 36.7301 18 35.3301 18H32.3301V14C32.3301 11.2333 31.3551 8.875 29.4051 6.925C27.4551 4.975 25.0967 4 22.3301 4C19.5634 4 17.2051 4.975 15.2551 6.925C13.3051 8.875 12.3301 11.2333 12.3301 14H11.3301C9.39674 14 7.74675 14.6833 6.38008 16.05C5.01341 17.4167 4.33008 19.0667 4.33008 21C4.33008 22.9333 5.01341 24.5833 6.38008 25.95C7.74675 27.3167 9.39674 28 11.3301 28Z" fill="url(#paint0_linear_2079_3018)"/>
<defs>
<linearGradient id="paint0_linear_2079_3018" x1="44.3301" y1="0" x2="18.5628" y2="42.1785" gradientUnits="userSpaceOnUse">
<stop stop-color="#FFBB66"/>
<stop offset="0.32" stop-color="#FF8086"/>
<stop offset="0.66" stop-color="#CB6FDD"/>
<stop offset="1" stop-color="#80BFFF"/>
</linearGradient>
</defs>
</svg>
