<svg width="20" height="20" viewBox="0 0 20 20" fill="none" xmlns="http://www.w3.org/2000/svg">
<path d="M9.275 13.5245C10.4417 13.5245 11.4333 13.1495 12.25 12.3995C13.0667 11.6495 13.475 10.7412 13.475 9.67451C13.475 8.72451 13.1708 7.92035 12.5625 7.26201C11.9542 6.60368 11.2167 6.27451 10.35 6.27451C9.56667 6.27451 8.90417 6.52451 8.3625 7.02451C7.82083 7.52451 7.55 8.14118 7.55 8.87451C7.55 9.19118 7.60417 9.50368 7.7125 9.81201C7.82083 10.1203 8.00833 10.3912 8.275 10.6245C8.54167 10.8578 8.80833 10.9537 9.075 10.912C9.34167 10.8703 9.55833 10.7578 9.725 10.5745C9.89167 10.3912 9.9875 10.1703 10.0125 9.91201C10.0375 9.65368 9.93333 9.41618 9.7 9.19951C9.66667 9.16618 9.63333 9.12451 9.6 9.07451C9.56667 9.02451 9.55 8.96618 9.55 8.89951C9.55 8.71618 9.625 8.57035 9.775 8.46201C9.925 8.35368 10.1167 8.29951 10.35 8.29951C10.6833 8.29951 10.9583 8.43701 11.175 8.71201C11.3917 8.98701 11.5 9.31618 11.5 9.69951C11.5 10.2162 11.2875 10.6537 10.8625 11.012C10.4375 11.3703 9.91667 11.5495 9.3 11.5495C8.51667 11.5495 7.85417 11.2328 7.3125 10.5995C6.77083 9.96618 6.5 9.19118 6.5 8.27451C6.5 7.95785 6.5375 7.64951 6.6125 7.34951C6.6875 7.04951 6.8 6.76618 6.95 6.49951C7.08333 6.24951 7.15 5.98701 7.15 5.71201C7.15 5.43701 7.05 5.19951 6.85 4.99951C6.65 4.79951 6.40833 4.70368 6.125 4.71201C5.84167 4.72035 5.625 4.84118 5.475 5.07451C5.14167 5.54118 4.89167 6.04118 4.725 6.57451C4.55833 7.10785 4.475 7.66618 4.475 8.24951C4.475 9.71618 4.94167 10.962 5.875 11.987C6.80833 13.012 7.94167 13.5245 9.275 13.5245ZM3 15.6995C2.05 14.8328 1.3125 13.8203 0.7875 12.662C0.2625 11.5037 0 10.2828 0 8.99951C0 6.49951 0.875 4.37451 2.625 2.62451C4.375 0.874512 6.5 -0.000488281 9 -0.000488281C11.0833 -0.000488281 12.9292 0.612012 14.5375 1.83701C16.1458 3.06201 17.1917 4.65785 17.675 6.62451L18.975 11.7495C19.0583 12.0662 19 12.3537 18.8 12.612C18.6 12.8703 18.3333 12.9995 18 12.9995H16V15.9995C16 16.5495 15.8042 17.0203 15.4125 17.412C15.0208 17.8037 14.55 17.9995 14 17.9995H12V18.9995C12 19.2828 11.9042 19.5203 11.7125 19.712C11.5208 19.9037 11.2833 19.9995 11 19.9995C10.7167 19.9995 10.4792 19.9037 10.2875 19.712C10.0958 19.5203 10 19.2828 10 18.9995V16.9995C10 16.7162 10.0958 16.4787 10.2875 16.287C10.4792 16.0953 10.7167 15.9995 11 15.9995H14V11.9995C14 11.7162 14.0958 11.4787 14.2875 11.287C14.4792 11.0953 14.7167 10.9995 15 10.9995H16.7L15.75 7.12451C15.3667 5.60784 14.55 4.37451 13.3 3.42451C12.05 2.47451 10.6167 1.99951 9 1.99951C7.06667 1.99951 5.41667 2.67451 4.05 4.02451C2.68333 5.37451 2 7.01618 2 8.94951C2 9.94951 2.20417 10.8995 2.6125 11.7995C3.02083 12.6995 3.6 13.4995 4.35 14.1995L5 14.7995V18.9995C5 19.2828 4.90417 19.5203 4.7125 19.712C4.52083 19.9037 4.28333 19.9995 4 19.9995C3.71667 19.9995 3.47917 19.9037 3.2875 19.712C3.09583 19.5203 3 19.2828 3 18.9995V15.6995Z" fill="#A0A0BD"/>
</svg>
