<svg width="40" height="40" viewBox="0 0 40 40" fill="none" xmlns="http://www.w3.org/2000/svg">
<path d="M14 10H28C28.5667 10 29.0417 10.1917 29.425 10.575C29.8083 10.9583 30 11.4333 30 12C30 12.5667 29.8083 13.0417 29.425 13.425C29.0417 13.8083 28.5667 14 28 14H14C13.4333 14 12.9583 13.8083 12.575 13.425C12.1917 13.0417 12 12.5667 12 12C12 11.4333 12.1917 10.9583 12.575 10.575C12.9583 10.1917 13.4333 10 14 10ZM14 16H28C28.5667 16 29.0417 16.1917 29.425 16.575C29.8083 16.9583 30 17.4333 30 18C30 18.5667 29.8083 19.0417 29.425 19.425C29.0417 19.8083 28.5667 20 28 20H14C13.4333 20 12.9583 19.8083 12.575 19.425C12.1917 19.0417 12 18.5667 12 18C12 17.4333 12.1917 16.9583 12.575 16.575C12.9583 16.1917 13.4333 16 14 16ZM6 40C4.33333 40 2.91667 39.4167 1.75 38.25C0.583333 37.0833 0 35.6667 0 34V30C0 29.4333 0.191667 28.9583 0.575 28.575C0.958333 28.1917 1.43333 28 2 28H6V4C6 2.9 6.39167 1.95833 7.175 1.175C7.95833 0.391667 8.9 0 10 0H32C33.1 0 34.0417 0.391667 34.825 1.175C35.6083 1.95833 36 2.9 36 4V16C36 16.5667 35.8083 17.0417 35.425 17.425C35.0417 17.8083 34.5667 18 34 18C33.4333 18 32.9583 17.8083 32.575 17.425C32.1917 17.0417 32 16.5667 32 16V4H10V28H16C16.5667 28 17.0417 28.1917 17.425 28.575C17.8083 28.9583 18 29.4333 18 30C18 30.5667 17.8083 31.0417 17.425 31.425C17.0417 31.8083 16.5667 32 16 32H4V34C4 34.5667 4.19167 35.0417 4.575 35.425C4.95833 35.8083 5.43333 36 6 36H16C16.5667 36 17.0417 36.1917 17.425 36.575C17.8083 36.9583 18 37.4333 18 38C18 38.5667 17.8083 39.0417 17.425 39.425C17.0417 39.8083 16.5667 40 16 40H6ZM22 38V34.7C22 34.4333 22.05 34.175 22.15 33.925C22.25 33.675 22.4 33.45 22.6 33.25L33.05 22.85C33.35 22.55 33.6833 22.3333 34.05 22.2C34.4167 22.0667 34.7833 22 35.15 22C35.55 22 35.9333 22.075 36.3 22.225C36.6667 22.375 37 22.6 37.3 22.9L39.15 24.75C39.4167 25.05 39.625 25.3833 39.775 25.75C39.925 26.1167 40 26.4833 40 26.85C40 27.2167 39.9333 27.5917 39.8 27.975C39.6667 28.3583 39.45 28.7 39.15 29L28.75 39.4C28.55 39.6 28.325 39.75 28.075 39.85C27.825 39.95 27.5667 40 27.3 40H24C23.4333 40 22.9583 39.8083 22.575 39.425C22.1917 39.0417 22 38.5667 22 38ZM25 37H26.9L32.95 30.9L32.05 29.95L31.1 29.05L25 35.1V37ZM32.05 29.95L31.1 29.05L32.95 30.9L32.05 29.95Z" fill="url(#paint0_linear_2079_3078)"/>
<defs>
<linearGradient id="paint0_linear_2079_3078" x1="40" y1="0" x2="4.34334" y2="42.4484" gradientUnits="userSpaceOnUse">
<stop stop-color="#FFBB66"/>
<stop offset="0.32" stop-color="#FF8086"/>
<stop offset="0.66" stop-color="#CB6FDD"/>
<stop offset="1" stop-color="#80BFFF"/>
</linearGradient>
</defs>
</svg>
