<svg width="48" height="48" viewBox="0 0 48 48" fill="none" xmlns="http://www.w3.org/2000/svg">
<mask id="mask0_613_147251" style="mask-type:alpha" maskUnits="userSpaceOnUse" x="0" y="0" width="48" height="48">
<rect width="48" height="48" fill="#D9D9D9"/>
</mask>
<g mask="url(#mask0_613_147251)">
<path d="M7.99702 24.0473C7.99702 26.8807 8.70535 29.514 10.122 31.9473C11.5387 34.3807 13.4637 36.3307 15.897 37.7973C16.3637 38.0973 16.6887 38.5057 16.872 39.0223C17.0553 39.539 17.0137 40.0307 16.747 40.4973C16.4803 40.9973 16.072 41.3223 15.522 41.4723C14.972 41.6223 14.447 41.564 13.947 41.2973C10.847 39.4973 8.41368 37.064 6.64702 33.9973C4.88035 30.9307 3.99702 27.614 3.99702 24.0473C3.99702 23.1807 4.05535 22.3307 4.17202 21.4973C4.28868 20.664 4.44702 19.8307 4.64702 18.9973L3.99702 19.3973C3.53035 19.6973 3.03035 19.7723 2.49702 19.6223C1.96368 19.4723 1.56368 19.164 1.29702 18.6973C1.03035 18.2307 0.972016 17.7223 1.12202 17.1723C1.27202 16.6223 1.58035 16.214 2.04702 15.9473L8.09702 12.4473C8.56368 12.1806 9.07202 12.1223 9.62202 12.2723C10.172 12.4223 10.5803 12.7306 10.847 13.1973L14.347 19.1973C14.6137 19.664 14.672 20.1723 14.522 20.7223C14.372 21.2723 14.0637 21.6807 13.597 21.9473C13.1303 22.214 12.622 22.2723 12.072 22.1223C11.522 21.9723 11.1137 21.664 10.847 21.1973L9.14702 18.2473C8.78035 19.1807 8.49702 20.1307 8.29702 21.0973C8.09702 22.064 7.99702 23.0473 7.99702 24.0473ZM23.997 7.99732C22.6303 7.99732 21.2803 8.17232 19.947 8.52232C18.6137 8.87232 17.347 9.38065 16.147 10.0473C15.647 10.314 15.122 10.4056 14.572 10.3223C14.022 10.239 13.6137 9.96398 13.347 9.49732C13.047 8.96398 12.9803 8.42232 13.147 7.87232C13.3137 7.32232 13.6637 6.89732 14.197 6.59732C15.697 5.73065 17.272 5.08065 18.922 4.64731C20.572 4.21398 22.2637 3.99731 23.997 3.99731C26.6303 3.99731 29.1553 4.48898 31.572 5.47231C33.9887 6.45565 36.147 7.88065 38.047 9.74732V8.99732C38.047 8.43065 38.2387 7.95565 38.622 7.57232C39.0054 7.18898 39.4804 6.99732 40.047 6.99732C40.6137 6.99732 41.0887 7.18898 41.472 7.57232C41.8554 7.95565 42.047 8.43065 42.047 8.99732V15.9973C42.047 16.564 41.8554 17.039 41.472 17.4223C41.0887 17.8057 40.6137 17.9973 40.047 17.9973H33.047C32.4803 17.9973 32.0053 17.8057 31.622 17.4223C31.2387 17.039 31.047 16.564 31.047 15.9973C31.047 15.4307 31.2387 14.9557 31.622 14.5723C32.0053 14.189 32.4803 13.9973 33.047 13.9973H36.497C34.9637 12.0973 33.1137 10.6223 30.947 9.57232C28.7803 8.52232 26.4637 7.99732 23.997 7.99732ZM36.097 34.5473C37.3637 33.0807 38.3303 31.464 38.997 29.6973C39.6637 27.9307 39.997 26.0807 39.997 24.1473C39.997 23.5807 40.1887 23.0807 40.572 22.6473C40.9554 22.214 41.4304 21.9973 41.997 21.9973C42.5637 21.9973 43.0387 22.214 43.422 22.6473C43.8054 23.0807 43.997 23.5807 43.997 24.1473C43.997 26.314 43.6553 28.4057 42.972 30.4223C42.2887 32.439 41.297 34.314 39.997 36.0473C38.697 37.7807 37.1553 39.264 35.372 40.4973C33.5887 41.7307 31.647 42.6473 29.547 43.2473L30.047 43.5473C30.5137 43.814 30.8137 44.2223 30.947 44.7723C31.0803 45.3223 31.0137 45.8307 30.747 46.2973C30.4803 46.764 30.0803 47.064 29.547 47.1973C29.0137 47.3307 28.5137 47.264 28.047 46.9973L21.947 43.4973C21.4803 43.2307 21.172 42.8223 21.022 42.2723C20.872 41.7223 20.9303 41.214 21.197 40.7473L24.697 34.6973C24.9637 34.2307 25.3637 33.9307 25.897 33.7973C26.4303 33.664 26.9303 33.7307 27.397 33.9973C27.8637 34.264 28.172 34.6723 28.322 35.2223C28.472 35.7723 28.4137 36.2807 28.147 36.7473L26.297 39.8973C28.197 39.6307 29.9887 39.039 31.672 38.1223C33.3554 37.2057 34.8303 36.014 36.097 34.5473Z" fill="url(#paint0_linear_613_147251)"/>
</g>
<defs>
<linearGradient id="paint0_linear_613_147251" x1="43.997" y1="3.99731" x2="5.38135" y2="49.6382" gradientUnits="userSpaceOnUse">
<stop stop-color="#FFA533"/>
<stop offset="0.32" stop-color="#FF4049"/>
<stop offset="0.66" stop-color="#C759DD"/>
<stop offset="1" stop-color="#1A8CFF"/>
</linearGradient>
</defs>
</svg>
