<svg width="40" height="40" viewBox="0 0 40 40" fill="none" xmlns="http://www.w3.org/2000/svg">
<path d="M30 30C30.8333 30 31.5417 29.7083 32.125 29.125C32.7083 28.5417 33 27.8333 33 27C33 26.1667 32.7083 25.4583 32.125 24.875C31.5417 24.2917 30.8333 24 30 24C29.1667 24 28.4583 24.2917 27.875 24.875C27.2917 25.4583 27 26.1667 27 27C27 27.8333 27.2917 28.5417 27.875 29.125C28.4583 29.7083 29.1667 30 30 30ZM30 36C31.0667 36 32.0167 35.7667 32.85 35.3C33.6833 34.8333 34.3833 34.1833 34.95 33.35C34.2833 32.8167 33.525 32.425 32.675 32.175C31.825 31.925 30.9333 31.8 30 31.8C29.0667 31.8 28.175 31.925 27.325 32.175C26.475 32.425 25.7167 32.8167 25.05 33.35C25.6167 34.1833 26.3167 34.8333 27.15 35.3C27.9833 35.7667 28.9333 36 30 36ZM4 36C2.9 36 1.95833 35.6083 1.175 34.825C0.391667 34.0417 0 33.1 0 32V4C0 2.9 0.391667 1.95833 1.175 1.175C1.95833 0.391667 2.9 0 4 0H32C33.1 0 34.0417 0.391667 34.825 1.175C35.6083 1.95833 36 2.9 36 4V17.4C35.3667 17.1 34.7167 16.8417 34.05 16.625C33.3833 16.4083 32.7 16.25 32 16.15V4H4V32H16.1C16.2 32.7333 16.3583 33.4333 16.575 34.1C16.7917 34.7667 17.05 35.4 17.35 36H4ZM4 32V4V16.15V16V32ZM8 28H16.15C16.25 27.3 16.4083 26.6167 16.625 25.95C16.8417 25.2833 17.0833 24.6333 17.35 24H8V28ZM8 20H20.2C21.2667 19 22.4583 18.1667 23.775 17.5C25.0917 16.8333 26.5 16.3833 28 16.15V16H8V20ZM8 12H28V8H8V12ZM30 40C27.2333 40 24.875 39.025 22.925 37.075C20.975 35.125 20 32.7667 20 30C20 27.2333 20.975 24.875 22.925 22.925C24.875 20.975 27.2333 20 30 20C32.7667 20 35.125 20.975 37.075 22.925C39.025 24.875 40 27.2333 40 30C40 32.7667 39.025 35.125 37.075 37.075C35.125 39.025 32.7667 40 30 40Z" fill="url(#paint0_linear_2079_2806)"/>
<defs>
<linearGradient id="paint0_linear_2079_2806" x1="40" y1="0" x2="4.34334" y2="42.4484" gradientUnits="userSpaceOnUse">
<stop stop-color="#FFBB66"/>
<stop offset="0.32" stop-color="#FF8086"/>
<stop offset="0.66" stop-color="#CB6FDD"/>
<stop offset="1" stop-color="#80BFFF"/>
</linearGradient>
</defs>
</svg>
