<svg width="41" height="44" viewBox="0 0 41 44" fill="none" xmlns="http://www.w3.org/2000/svg">
<path d="M18.334 4L6.48398 10.85L18.334 17.7L30.184 10.85L18.334 4ZM0.333984 27.95V12.05C0.333984 11.3167 0.508984 10.65 0.858984 10.05C1.20898 9.45 1.70065 8.96667 2.33398 8.6L16.334 0.55C16.6673 0.383333 16.9923 0.25 17.309 0.15C17.6257 0.05 17.9673 0 18.334 0C18.7007 0 19.0507 0.05 19.384 0.15C19.7173 0.25 20.034 0.383333 20.334 0.55L34.334 8.6C34.9673 8.96667 35.459 9.45 35.809 10.05C36.159 10.65 36.334 11.3167 36.334 12.05V18C36.334 18.5667 36.1423 19.0417 35.759 19.425C35.3756 19.8083 34.9007 20 34.334 20C33.7673 20 33.2923 19.8083 32.909 19.425C32.5257 19.0417 32.334 18.5667 32.334 18V14.2L20.284 21.15C19.6507 21.5167 18.984 21.7 18.284 21.7C17.584 21.7 16.9173 21.5167 16.284 21.15L4.33398 14.2V27.9L15.334 34.3C15.634 34.4667 15.8757 34.7 16.059 35C16.2423 35.3 16.334 35.6333 16.334 36C16.334 36.7667 16.0007 37.3417 15.334 37.725C14.6673 38.1083 14.0007 38.1167 13.334 37.75L2.33398 31.4C1.70065 31.0333 1.20898 30.55 0.858984 29.95C0.508984 29.35 0.333984 28.6833 0.333984 27.95ZM30.334 44C27.5673 44 25.209 43.025 23.259 41.075C21.309 39.125 20.334 36.7667 20.334 34C20.334 31.2333 21.309 28.875 23.259 26.925C25.209 24.975 27.5673 24 30.334 24C33.1007 24 35.459 24.975 37.409 26.925C39.359 28.875 40.334 31.2333 40.334 34C40.334 36.7667 39.359 39.125 37.409 41.075C35.459 43.025 33.1007 44 30.334 44ZM31.334 33.6V29C31.334 28.7333 31.234 28.5 31.034 28.3C30.834 28.1 30.6007 28 30.334 28C30.0673 28 29.834 28.1 29.634 28.3C29.434 28.5 29.334 28.7333 29.334 29V33.55C29.334 33.8167 29.384 34.075 29.484 34.325C29.584 34.575 29.734 34.8 29.934 35L32.934 38C33.134 38.2 33.3673 38.3 33.634 38.3C33.9007 38.3 34.134 38.2 34.334 38C34.534 37.8 34.634 37.5667 34.634 37.3C34.634 37.0333 34.534 36.8 34.334 36.6L31.334 33.6Z" fill="url(#paint0_linear_2079_2910)"/>
<defs>
<linearGradient id="paint0_linear_2079_2910" x1="40.334" y1="0" x2="0.638055" y2="42.961" gradientUnits="userSpaceOnUse">
<stop stop-color="#FFBB66"/>
<stop offset="0.32" stop-color="#FF8086"/>
<stop offset="0.66" stop-color="#CB6FDD"/>
<stop offset="1" stop-color="#80BFFF"/>
</linearGradient>
</defs>
</svg>
