<svg width="44" height="44" viewBox="0 0 44 44" fill="none" xmlns="http://www.w3.org/2000/svg">
<path d="M12 30H25C26.4 30 27.5833 29.5083 28.55 28.525C29.5167 27.5417 30 26.35 30 24.95C30 23.55 29.5 22.3667 28.5 21.4C27.5 20.4333 26.3 19.95 24.9 19.95C24.6333 18.25 23.85 16.8333 22.55 15.7C21.25 14.5667 19.7333 14 18 14C16.6333 14 15.3833 14.3667 14.25 15.1C13.1167 15.8333 12.2667 16.8167 11.7 18.05C10.1 18.1167 8.75 18.725 7.65 19.875C6.55 21.025 6 22.4 6 24C6 25.6667 6.58333 27.0833 7.75 28.25C8.91667 29.4167 10.3333 30 12 30ZM12 26C11.4333 26 10.9583 25.8083 10.575 25.425C10.1917 25.0417 10 24.5667 10 24C10 23.4333 10.1917 22.9583 10.575 22.575C10.9583 22.1917 11.4333 22 12 22H14.5V21.5C14.5 20.5333 14.8417 19.7083 15.525 19.025C16.2083 18.3417 17.0333 18 18 18C18.9667 18 19.7917 18.3417 20.475 19.025C21.1583 19.7083 21.5 20.5333 21.5 21.5V24H25C25.2667 24 25.5 24.1 25.7 24.3C25.9 24.5 26 24.7333 26 25C26 25.2667 25.9 25.5 25.7 25.7C25.5 25.9 25.2667 26 25 26H12ZM12 44V40H15V36H4C2.9 36 1.95833 35.6083 1.175 34.825C0.391667 34.0417 0 33.1 0 32V12C0 10.9 0.391667 9.95833 1.175 9.175C1.95833 8.39167 2.9 8 4 8H32C33.1 8 34.0417 8.39167 34.825 9.175C35.6083 9.95833 36 10.9 36 12V32C36 33.1 35.6083 34.0417 34.825 34.825C34.0417 35.6083 33.1 36 32 36H21V40H24V44H12ZM40 26V4H8V0H40C41.1 0 42.0417 0.391667 42.825 1.175C43.6083 1.95833 44 2.9 44 4V26H40ZM4 32H32V12H4V32Z" fill="url(#paint0_linear_2079_3012)"/>
<defs>
<linearGradient id="paint0_linear_2079_3012" x1="44" y1="0" x2="4.77767" y2="46.6932" gradientUnits="userSpaceOnUse">
<stop stop-color="#FFBB66"/>
<stop offset="0.32" stop-color="#FF8086"/>
<stop offset="0.66" stop-color="#CB6FDD"/>
<stop offset="1" stop-color="#80BFFF"/>
</linearGradient>
</defs>
</svg>
