<svg width="45" height="44" viewBox="0 0 45 44" fill="none" xmlns="http://www.w3.org/2000/svg">
<path d="M12.666 30H25.666C27.066 30 28.2493 29.5083 29.216 28.525C30.1827 27.5417 30.666 26.35 30.666 24.95C30.666 23.55 30.166 22.3667 29.166 21.4C28.166 20.4333 26.966 19.95 25.566 19.95C25.2993 18.25 24.516 16.8333 23.216 15.7C21.916 14.5667 20.3993 14 18.666 14C17.2993 14 16.0493 14.3667 14.916 15.1C13.7827 15.8333 12.9327 16.8167 12.366 18.05C10.766 18.1167 9.41602 18.725 8.31602 19.875C7.21602 21.025 6.66602 22.4 6.66602 24C6.66602 25.6667 7.24935 27.0833 8.41602 28.25C9.58268 29.4167 10.9993 30 12.666 30ZM12.666 26C12.0993 26 11.6243 25.8083 11.241 25.425C10.8577 25.0417 10.666 24.5667 10.666 24C10.666 23.4333 10.8577 22.9583 11.241 22.575C11.6243 22.1917 12.0993 22 12.666 22H15.166V21.5C15.166 20.5333 15.5077 19.7083 16.191 19.025C16.8743 18.3417 17.6993 18 18.666 18C19.6327 18 20.4577 18.3417 21.141 19.025C21.8243 19.7083 22.166 20.5333 22.166 21.5V24H25.666C25.9327 24 26.166 24.1 26.366 24.3C26.566 24.5 26.666 24.7333 26.666 25C26.666 25.2667 26.566 25.5 26.366 25.7C26.166 25.9 25.9327 26 25.666 26H12.666ZM12.666 44V40H15.666V36H4.66602C3.56602 36 2.62435 35.6083 1.84102 34.825C1.05768 34.0417 0.666016 33.1 0.666016 32V12C0.666016 10.9 1.05768 9.95833 1.84102 9.175C2.62435 8.39167 3.56602 8 4.66602 8H32.666C33.766 8 34.7077 8.39167 35.491 9.175C36.2743 9.95833 36.666 10.9 36.666 12V32C36.666 33.1 36.2743 34.0417 35.491 34.825C34.7077 35.6083 33.766 36 32.666 36H21.666V40H24.666V44H12.666ZM40.666 26V4H8.66602V0H40.666C41.766 0 42.7077 0.391667 43.491 1.175C44.2743 1.95833 44.666 2.9 44.666 4V26H40.666ZM4.66602 32H32.666V12H4.66602V32Z" fill="url(#paint0_linear_2079_2818)"/>
<defs>
<linearGradient id="paint0_linear_2079_2818" x1="44.666" y1="0" x2="5.44369" y2="46.6932" gradientUnits="userSpaceOnUse">
<stop stop-color="#FFBB66"/>
<stop offset="0.32" stop-color="#FF8086"/>
<stop offset="0.66" stop-color="#CB6FDD"/>
<stop offset="1" stop-color="#80BFFF"/>
</linearGradient>
</defs>
</svg>
