<svg width="49" height="48" viewBox="0 0 49 48" fill="none" xmlns="http://www.w3.org/2000/svg">
<mask id="mask0_2079_2597" style="mask-type:alpha" maskUnits="userSpaceOnUse" x="0" y="0" width="49" height="48">
<rect x="0.333984" width="48" height="48" fill="#D9D9D9"/>
</mask>
<g mask="url(#mask0_2079_2597)">
<path d="M2.23398 26.6C1.63398 25.4 1.16732 24.1833 0.833984 22.95C0.500651 21.7167 0.333984 20.4667 0.333984 19.2C0.333984 15.4667 1.60065 12.3333 4.13398 9.8C6.66732 7.26667 9.80065 6 13.534 6C15.634 6 17.634 6.44167 19.534 7.325C21.434 8.20833 23.034 9.43333 24.334 11C25.634 9.43333 27.234 8.20833 29.134 7.325C31.034 6.44167 33.034 6 35.134 6C38.8673 6 42.0007 7.26667 44.534 9.8C47.0673 12.3333 48.334 15.4667 48.334 19.2C48.334 20.4667 48.1673 21.7167 47.834 22.95C47.5007 24.1833 47.034 25.4 46.434 26.6C46.0673 25.9667 45.634 25.4 45.134 24.9C44.634 24.4 44.0507 24 43.384 23.7C43.684 22.9333 43.9173 22.1833 44.084 21.45C44.2507 20.7167 44.334 19.9667 44.334 19.2C44.334 16.6 43.4507 14.4167 41.684 12.65C39.9173 10.8833 37.734 10 35.134 10C32.434 10 30.359 10.7417 28.909 12.225C27.459 13.7083 25.934 15.3667 24.334 17.2C22.734 15.3333 21.209 13.6667 19.759 12.2C18.309 10.7333 16.234 10 13.534 10C10.934 10 8.75065 10.8833 6.98398 12.65C5.21732 14.4167 4.33398 16.6 4.33398 19.2C4.33398 19.9667 4.41732 20.7167 4.58398 21.45C4.75065 22.1833 4.98398 22.9333 5.28398 23.7C4.61732 24 4.03398 24.4 3.53398 24.9C3.03398 25.4 2.60065 25.9667 2.23398 26.6ZM0.333984 44V40.85C0.333984 39.3833 1.07565 38.2083 2.55898 37.325C4.04232 36.4417 5.96732 36 8.33398 36C8.76732 36 9.18398 36.0083 9.58398 36.025C9.98398 36.0417 10.3673 36.0833 10.734 36.15C10.2673 36.8167 9.91732 37.5333 9.68398 38.3C9.45065 39.0667 9.33398 39.8833 9.33398 40.75V44H0.333984ZM12.334 44V40.75C12.334 38.5833 13.4423 36.8333 15.659 35.5C17.8757 34.1667 20.7673 33.5 24.334 33.5C27.934 33.5 30.834 34.1667 33.034 35.5C35.234 36.8333 36.334 38.5833 36.334 40.75V44H12.334ZM39.334 44V40.75C39.334 39.8833 39.2257 39.0667 39.009 38.3C38.7923 37.5333 38.4673 36.8167 38.034 36.15C38.4007 36.0833 38.7757 36.0417 39.159 36.025C39.5423 36.0083 39.934 36 40.334 36C42.734 36 44.6673 36.4417 46.134 37.325C47.6007 38.2083 48.334 39.3833 48.334 40.85V44H39.334ZM8.33398 34C7.23398 34 6.29232 33.6083 5.50898 32.825C4.72565 32.0417 4.33398 31.1 4.33398 30C4.33398 28.8667 4.72565 27.9167 5.50898 27.15C6.29232 26.3833 7.23398 26 8.33398 26C9.46732 26 10.4173 26.3833 11.184 27.15C11.9507 27.9167 12.334 28.8667 12.334 30C12.334 31.1 11.9507 32.0417 11.184 32.825C10.4173 33.6083 9.46732 34 8.33398 34ZM40.334 34C39.234 34 38.2923 33.6083 37.509 32.825C36.7257 32.0417 36.334 31.1 36.334 30C36.334 28.8667 36.7257 27.9167 37.509 27.15C38.2923 26.3833 39.234 26 40.334 26C41.4673 26 42.4173 26.3833 43.184 27.15C43.9507 27.9167 44.334 28.8667 44.334 30C44.334 31.1 43.9507 32.0417 43.184 32.825C42.4173 33.6083 41.4673 34 40.334 34ZM24.334 32C22.6673 32 21.2507 31.4167 20.084 30.25C18.9173 29.0833 18.334 27.6667 18.334 26C18.334 24.3 18.9173 22.875 20.084 21.725C21.2507 20.575 22.6673 20 24.334 20C26.034 20 27.459 20.575 28.609 21.725C29.759 22.875 30.334 24.3 30.334 26C30.334 27.6667 29.759 29.0833 28.609 30.25C27.459 31.4167 26.034 32 24.334 32Z" fill="url(#paint0_linear_2079_2597)"/>
</g>
<defs>
<linearGradient id="paint0_linear_2079_2597" x1="48.334" y1="6" x2="16.62" y2="53.6902" gradientUnits="userSpaceOnUse">
<stop stop-color="#FFA533"/>
<stop offset="0.32" stop-color="#FF4049"/>
<stop offset="0.66" stop-color="#C759DD"/>
<stop offset="1" stop-color="#1A8CFF"/>
</linearGradient>
</defs>
</svg>
