<svg width="44" height="32" viewBox="0 0 44 32" fill="none" xmlns="http://www.w3.org/2000/svg">
<path d="M0 26.4C0 25.2667 0.291667 24.225 0.875 23.275C1.45833 22.325 2.23333 21.6 3.2 21.1C5.26667 20.0667 7.36667 19.2917 9.5 18.775C11.6333 18.2583 13.8 18 16 18C18.2 18 20.3667 18.2583 22.5 18.775C24.6333 19.2917 26.7333 20.0667 28.8 21.1C29.7667 21.6 30.5417 22.325 31.125 23.275C31.7083 24.225 32 25.2667 32 26.4V28C32 29.1 31.6083 30.0417 30.825 30.825C30.0417 31.6083 29.1 32 28 32H4C2.9 32 1.95833 31.6083 1.175 30.825C0.391667 30.0417 0 29.1 0 28V26.4ZM40 32H34.9C35.2667 31.4 35.5417 30.7583 35.725 30.075C35.9083 29.3917 36 28.7 36 28V26C36 24.5333 35.5917 23.125 34.775 21.775C33.9583 20.425 32.8 19.2667 31.3 18.3C33 18.5 34.6 18.8417 36.1 19.325C37.6 19.8083 39 20.4 40.3 21.1C41.5 21.7667 42.4167 22.5083 43.05 23.325C43.6833 24.1417 44 25.0333 44 26V28C44 29.1 43.6083 30.0417 42.825 30.825C42.0417 31.6083 41.1 32 40 32ZM16 16C13.8 16 11.9167 15.2167 10.35 13.65C8.78333 12.0833 8 10.2 8 8C8 5.8 8.78333 3.91667 10.35 2.35C11.9167 0.783333 13.8 0 16 0C18.2 0 20.0833 0.783333 21.65 2.35C23.2167 3.91667 24 5.8 24 8C24 10.2 23.2167 12.0833 21.65 13.65C20.0833 15.2167 18.2 16 16 16ZM36 8C36 10.2 35.2167 12.0833 33.65 13.65C32.0833 15.2167 30.2 16 28 16C27.6333 16 27.1667 15.9583 26.6 15.875C26.0333 15.7917 25.5667 15.7 25.2 15.6C26.1 14.5333 26.7917 13.35 27.275 12.05C27.7583 10.75 28 9.4 28 8C28 6.6 27.7583 5.25 27.275 3.95C26.7917 2.65 26.1 1.46667 25.2 0.4C25.6667 0.233333 26.1333 0.125 26.6 0.075C27.0667 0.025 27.5333 0 28 0C30.2 0 32.0833 0.783333 33.65 2.35C35.2167 3.91667 36 5.8 36 8ZM4 28H28V26.4C28 26.0333 27.9083 25.7 27.725 25.4C27.5417 25.1 27.3 24.8667 27 24.7C25.2 23.8 23.3833 23.125 21.55 22.675C19.7167 22.225 17.8667 22 16 22C14.1333 22 12.2833 22.225 10.45 22.675C8.61667 23.125 6.8 23.8 5 24.7C4.7 24.8667 4.45833 25.1 4.275 25.4C4.09167 25.7 4 26.0333 4 26.4V28ZM16 12C17.1 12 18.0417 11.6083 18.825 10.825C19.6083 10.0417 20 9.1 20 8C20 6.9 19.6083 5.95833 18.825 5.175C18.0417 4.39167 17.1 4 16 4C14.9 4 13.9583 4.39167 13.175 5.175C12.3917 5.95833 12 6.9 12 8C12 9.1 12.3917 10.0417 13.175 10.825C13.9583 11.6083 14.9 12 16 12Z" fill="url(#paint0_linear_2079_2922)"/>
<defs>
<linearGradient id="paint0_linear_2079_2922" x1="44" y1="0" x2="18.2327" y2="42.1785" gradientUnits="userSpaceOnUse">
<stop stop-color="#FFBB66"/>
<stop offset="0.32" stop-color="#FF8086"/>
<stop offset="0.66" stop-color="#CB6FDD"/>
<stop offset="1" stop-color="#80BFFF"/>
</linearGradient>
</defs>
</svg>
