<svg width="45" height="48" viewBox="0 0 45 48" fill="none" xmlns="http://www.w3.org/2000/svg">
<g clip-path="url(#clip0_2147_2935)">
<path fill-rule="evenodd" clip-rule="evenodd" d="M31.5584 30.9496C31.4841 31.1317 31.3668 31.3021 31.2142 31.4531L29.6533 32.9984L29.6455 33.0061C29.4929 33.1572 29.3208 33.2734 29.1369 33.3469C28.9452 33.4283 28.7457 33.4709 28.5306 33.4709C28.3154 33.4709 28.112 33.4283 27.9242 33.3469C27.7403 33.2656 27.5721 33.1494 27.4274 32.9984L26.4103 32.0031C26.3477 32.0302 26.2851 32.065 26.2264 32.0921C26.0543 32.1735 25.8743 32.2432 25.7022 32.309C25.6944 32.3168 25.6866 32.3168 25.6748 32.3168C25.5027 32.3865 25.3188 32.4446 25.1193 32.5065C25.0567 32.5259 24.9941 32.5491 24.9276 32.5607V33.7884C24.9276 34.0014 24.8846 34.2028 24.8103 34.3887C24.7359 34.5708 24.6186 34.7373 24.466 34.8845L24.4504 34.8999C24.2978 35.0432 24.1257 35.1594 23.9418 35.233C23.754 35.3066 23.5545 35.3492 23.3511 35.3492H21.1213C20.9061 35.3492 20.7066 35.3066 20.5149 35.233C20.3311 35.1594 20.1589 35.0432 20.0064 34.8922C19.8538 34.7412 19.7364 34.5708 19.6621 34.3887C19.5878 34.2028 19.5447 34.0053 19.5447 33.7884V32.3865C19.4743 32.3594 19.4078 32.34 19.3374 32.3129C19.1535 32.2432 18.9736 32.1618 18.7858 32.0805C18.602 31.9914 18.422 31.9101 18.2499 31.821C18.1951 31.7939 18.1403 31.7591 18.0856 31.732L17.2132 32.6111L17.1936 32.6305C17.0411 32.7738 16.869 32.8822 16.6851 32.9558C16.5012 33.0294 16.3017 33.0642 16.0944 33.0642C15.887 33.0642 15.6875 33.0294 15.5037 32.9558C15.3198 32.8822 15.1477 32.7776 14.9951 32.6343C14.9873 32.6266 14.9795 32.6266 14.9795 32.6188L13.4225 31.0581C13.2699 30.9148 13.1487 30.7444 13.0704 30.5624C12.9883 30.3803 12.9452 30.1751 12.9452 29.9543C12.9452 29.7413 12.9883 29.5399 13.0704 29.3463C13.1526 29.1565 13.2699 28.9939 13.4225 28.8506L14.4201 27.863C14.3848 27.7933 14.3575 27.7352 14.3301 27.6732C14.2557 27.5028 14.1775 27.3247 14.1032 27.1349C14.0328 26.9567 13.9663 26.767 13.9115 26.5772C13.8919 26.5152 13.8685 26.4494 13.8567 26.3874H12.6166C12.4015 26.3874 12.198 26.3448 12.0103 26.2713C11.8264 26.1977 11.6582 26.0815 11.5095 25.9304L11.4939 25.915C11.3491 25.7639 11.2318 25.5935 11.1575 25.4192C11.0831 25.2333 11.0401 25.0358 11.0401 24.8344V22.6269C11.0401 22.1893 11.1927 21.8214 11.5017 21.5232C11.6543 21.3721 11.8264 21.2559 12.0103 21.1823C12.198 21.1088 12.3976 21.0662 12.6166 21.0662H14.0328C14.0601 20.9964 14.0797 20.9306 14.1071 20.8609C14.1775 20.6789 14.2597 20.5007 14.3418 20.3148C14.4318 20.1289 14.5139 19.9547 14.6039 19.7842C14.6313 19.73 14.6665 19.6758 14.6939 19.6216L13.8059 18.7579L13.7863 18.7386C13.6416 18.5875 13.532 18.4171 13.4577 18.2351C13.3834 18.0531 13.3482 17.8556 13.3482 17.6503C13.3482 17.445 13.3834 17.2475 13.4577 17.0655C13.532 16.8835 13.6377 16.7131 13.7824 16.562C13.7902 16.5543 13.7902 16.5466 13.798 16.5466L15.3746 15.0013C15.5271 14.8502 15.6993 14.7341 15.8831 14.6605C16.0748 14.5791 16.2743 14.5365 16.4895 14.5365C16.7046 14.5365 16.9081 14.5791 17.0958 14.6605C17.2797 14.7418 17.4479 14.858 17.5927 15.009L18.5902 15.9966C18.6606 15.9618 18.7193 15.9346 18.7819 15.9075C18.954 15.8339 19.134 15.7565 19.3257 15.6829C19.5056 15.6132 19.6973 15.5474 19.889 15.4931C19.9594 15.4738 20.0181 15.4505 20.0807 15.4389V14.2112C20.0807 13.9982 20.1237 13.7968 20.198 13.6109C20.2724 13.4289 20.3897 13.2624 20.5423 13.1152L20.5579 13.0997C20.7105 12.9564 20.8826 12.8402 21.0587 12.7667C21.2465 12.6931 21.446 12.6505 21.6494 12.6505H23.8792C24.0944 12.6505 24.2939 12.6931 24.4856 12.7667C24.6694 12.8402 24.8416 12.9564 24.9941 13.1075C25.1467 13.2585 25.2641 13.4289 25.3384 13.6109C25.4127 13.7968 25.4557 13.9943 25.4557 14.2112V15.6132C25.5262 15.6403 25.5927 15.6597 25.6631 15.6868C25.8469 15.7565 26.0269 15.8378 26.2147 15.9191C26.3985 16.0082 26.5785 16.0896 26.7506 16.1786C26.8054 16.2057 26.8601 16.2406 26.9149 16.2677L27.7873 15.4041C27.9399 15.253 28.112 15.1368 28.2958 15.0555C28.4875 14.9742 28.687 14.9316 28.9022 14.9316C29.1174 14.9316 29.3169 14.9742 29.5086 15.0555C29.7002 15.1368 29.8645 15.2453 30.0171 15.4041L31.578 16.9493L31.5858 16.9571C31.7384 17.1081 31.8557 17.2785 31.9301 17.4605C32.0122 17.6503 32.0553 17.8478 32.0553 18.0608C32.0553 18.2738 32.0122 18.4752 31.9301 18.6611C31.8479 18.847 31.7306 19.0097 31.578 19.153L30.5804 20.1599C30.6078 20.2219 30.643 20.2838 30.6704 20.3419C30.7408 20.4968 30.8152 20.6673 30.8895 20.8531C30.8973 20.8609 30.8973 20.8686 30.8973 20.8803C30.9677 21.0584 31.0342 21.2482 31.089 21.4379C31.1086 21.4999 31.132 21.5658 31.1438 21.6277H32.3839C32.599 21.6277 32.8024 21.6703 32.9902 21.7439C33.1741 21.8175 33.3423 21.9337 33.491 22.0847L33.5066 22.1002C33.6513 22.2512 33.7687 22.4217 33.843 22.5959C33.9174 22.7818 33.9604 22.9793 33.9604 23.1807V25.3882C33.9604 25.6013 33.9174 25.7988 33.843 25.9885C33.7687 26.1706 33.6513 26.341 33.4988 26.4998C33.3462 26.6508 33.1741 26.767 32.9902 26.8406C32.8024 26.9141 32.6029 26.9567 32.3839 26.9567H30.9677C30.9403 27.0265 30.9208 27.0923 30.8934 27.162C30.823 27.344 30.7487 27.5222 30.6587 27.7081C30.5687 27.8901 30.4866 28.0683 30.3966 28.2387C30.3692 28.2929 30.334 28.3471 30.3066 28.4013L31.179 29.265C31.3315 29.416 31.4489 29.5864 31.5311 29.7684C31.6132 29.9582 31.6562 30.1557 31.6562 30.3687C31.6562 30.5817 31.6132 30.7792 31.5311 30.969L31.5584 30.9496ZM18.5002 44.9267C13.532 44.0011 9.16626 41.3792 6.04059 37.6961C2.89145 33.9898 0.998047 29.2146 0.998047 24.0095C0.998047 19.1181 2.66846 14.6063 5.48118 11.0084C8.34866 7.33306 12.4054 4.61045 17.0841 3.40987L17.7804 6.06664C13.7081 7.11231 10.1756 9.48249 7.6758 12.6853C5.23472 15.8146 3.78338 19.7416 3.78338 24.0095C3.78338 28.5524 5.43032 32.7118 8.16088 35.9301C10.7741 39.009 14.3848 41.2359 18.5042 42.1189V39.2801L23.7423 43.5364L18.5042 47.7926L18.5002 44.9267ZM26.5002 3.09617C31.4215 4.01403 35.7521 6.59335 38.8738 10.2261C42.0699 13.944 43.9985 18.7579 43.9985 24.0095C43.9985 28.6298 42.512 32.9054 39.9848 36.3949C37.3912 39.9772 33.7022 42.727 29.399 44.1715L28.9531 42.8703L28.5071 41.569C28.6166 41.5341 28.7262 41.4954 28.8318 41.4567C32.4347 40.1748 35.5252 37.8239 37.7198 34.7954C39.9183 31.7591 41.2132 28.0373 41.2132 24.0134C41.2132 19.4279 39.5389 15.2337 36.7614 12.0037C34.1521 8.9674 30.5726 6.77924 26.4963 5.90011V8.72341L21.2621 4.46328L26.5002 0.207031V3.09617ZM26.3907 24.0018C26.3907 24.269 26.3633 24.5246 26.3164 24.7725H26.3086C26.2616 25.0242 26.1834 25.2643 26.0895 25.4928C25.9878 25.7329 25.8704 25.9576 25.7335 26.1551C25.6044 26.3603 25.444 26.5501 25.2719 26.7205C25.0919 26.8987 24.9081 27.0458 24.7007 27.1852C24.5012 27.3131 24.2743 27.437 24.0318 27.5377C24.024 27.5454 24.0122 27.5454 24.0044 27.5532C23.7853 27.6422 23.5506 27.7081 23.3081 27.7584C23.0538 27.8049 22.7995 27.832 22.5296 27.832C22.2597 27.832 22.0015 27.8049 21.7511 27.7584C21.4968 27.712 21.2543 27.6345 21.0235 27.5415C20.7809 27.4409 20.554 27.3247 20.3545 27.1891C20.1472 27.0536 19.9555 26.8948 19.7834 26.7244C19.6112 26.5462 19.4587 26.3642 19.3218 26.1589C19.1927 25.9614 19.0675 25.7368 18.9658 25.4967C18.9579 25.4889 18.9579 25.4773 18.9501 25.4696C18.8601 25.2527 18.7936 25.0203 18.7428 24.7802C18.6958 24.5285 18.6685 24.2767 18.6685 24.0095C18.6685 23.7423 18.6958 23.4867 18.7428 23.2388C18.7897 22.9871 18.868 22.747 18.9619 22.5185C19.0636 22.2784 19.1809 22.0537 19.3179 21.8562C19.4469 21.651 19.6073 21.4612 19.7795 21.2908C19.9594 21.1126 20.1433 20.9655 20.3506 20.826C20.5501 20.6982 20.777 20.5743 21.0196 20.4697C21.0274 20.462 21.0391 20.462 21.0469 20.4542C21.2738 20.3652 21.5086 20.2993 21.7472 20.249C22.0015 20.2025 22.2557 20.1754 22.5257 20.1754C22.7956 20.1754 23.0538 20.2025 23.3042 20.249C23.5584 20.2955 23.801 20.3729 24.0318 20.4659C24.2743 20.5666 24.5012 20.6827 24.7007 20.8222C24.9081 20.9577 25.0998 21.1165 25.2719 21.2869C25.444 21.4651 25.5966 21.6471 25.7335 21.8523C25.8626 22.0499 25.9878 22.2745 26.0895 22.5146C26.0973 22.5223 26.0973 22.534 26.1051 22.5417C26.1951 22.7586 26.2616 22.991 26.3125 23.2311C26.3633 23.4828 26.3907 23.7345 26.3907 24.0018Z" fill="url(#paint0_linear_2147_2935)" stroke="url(#paint1_linear_2147_2935)" stroke-width="0.5" stroke-miterlimit="2.6131"/>
</g>
<defs>
<linearGradient id="paint0_linear_2147_2935" x1="43.9985" y1="0.207031" x2="1.04816" y2="46.4117" gradientUnits="userSpaceOnUse">
<stop stop-color="#FFA533"/>
<stop offset="0.32" stop-color="#FF4049"/>
<stop offset="0.66" stop-color="#C759DD"/>
<stop offset="1" stop-color="#1A8CFF"/>
</linearGradient>
<linearGradient id="paint1_linear_2147_2935" x1="43.9985" y1="0.207031" x2="1.04816" y2="46.4117" gradientUnits="userSpaceOnUse">
<stop stop-color="#FFA533"/>
<stop offset="0.32" stop-color="#FF4049"/>
<stop offset="0.66" stop-color="#C759DD"/>
<stop offset="1" stop-color="#1A8CFF"/>
</linearGradient>
<clipPath id="clip0_2147_2935">
<rect width="43.2" height="48" fill="white" transform="translate(0.900391)"/>
</clipPath>
</defs>
</svg>
