<svg width="55" height="48" viewBox="0 0 55 48" fill="none" xmlns="http://www.w3.org/2000/svg">
<g clip-path="url(#clip0_2147_2927)">
<path fill-rule="evenodd" clip-rule="evenodd" d="M22.4736 16.6077C23.9928 16.6111 25.4768 17.0476 26.7383 17.862C27.9998 18.6764 28.982 19.8322 29.5609 21.1834C30.1398 22.5346 30.2895 24.0205 29.9909 25.4534C29.6924 26.8864 28.959 28.2021 27.8835 29.2342C26.808 30.2664 25.4387 30.9688 23.9484 31.2527C22.4581 31.5366 20.9138 31.3892 19.5106 30.8291C18.1073 30.269 16.9081 29.3215 16.0645 28.1061C15.2208 26.8907 14.7705 25.4621 14.7705 24.0006C14.7705 23.0283 14.9699 22.0656 15.3572 21.1675C15.7445 20.2694 16.3122 19.4537 17.0278 18.767C17.7433 18.0802 18.5926 17.536 19.5271 17.1655C20.4615 16.795 21.4628 16.6055 22.4736 16.6077ZM40.8695 40.4742V36.7197H30.1945C31.1217 35.9132 31.967 35.0237 32.7189 34.0631H42.2436C42.6081 34.0642 42.9574 34.2037 43.2156 34.4512C43.4737 34.6987 43.6199 35.0343 43.6222 35.3849V40.4742C44.5124 40.7856 45.2601 41.3887 45.7339 42.1777C46.2078 42.9666 46.3774 43.891 46.2131 44.7884C46.0488 45.6857 45.5611 46.4987 44.8355 47.0845C44.11 47.6702 43.1931 47.9913 42.2459 47.9913C41.2987 47.9913 40.3818 47.6702 39.6562 47.0845C38.9307 46.4987 38.4429 45.6857 38.2786 44.7884C38.1143 43.891 38.284 42.9666 38.7578 42.1777C39.2317 41.3887 39.9793 40.7856 40.8695 40.4742ZM39.9072 13.2234H33.7976C33.2044 12.2857 32.5291 11.3983 31.779 10.5711H38.5331V7.55713C37.6398 7.25417 36.8861 6.65808 36.4043 5.87359C35.9225 5.0891 35.7435 4.16638 35.8987 3.26752C36.0539 2.36866 36.5334 1.55116 37.2529 0.958621C37.9725 0.366086 38.8861 0.0364174 39.8332 0.0275283C40.7804 0.0186392 41.7005 0.331098 42.4319 0.910015C43.1634 1.48893 43.6594 2.29728 43.8328 3.19305C44.0062 4.08883 43.8459 5.01474 43.3801 5.80812C42.9143 6.60151 42.1728 7.21163 41.2858 7.5313V11.9016C41.2858 12.0755 41.2501 12.2478 41.1808 12.4084C41.1114 12.5691 41.0098 12.715 40.8818 12.8378C40.7537 12.9606 40.6017 13.0579 40.4344 13.1241C40.2672 13.1902 40.0881 13.224 39.9072 13.2234ZM55 6.45918C54.9981 5.76196 54.8007 5.07814 54.4286 4.47981C54.0565 3.88149 53.5235 3.39081 52.8858 3.05952C52.2481 2.72823 51.5292 2.56859 50.8051 2.59743C50.0809 2.62627 49.3782 2.84252 48.7712 3.22339C48.1641 3.60426 47.675 4.13564 47.3556 4.7615C47.0362 5.38737 46.8983 6.08454 46.9563 6.77953C47.0143 7.47451 47.2662 8.14156 47.6854 8.71035C48.1045 9.27915 48.6755 9.72862 49.338 10.0114V17.7617H35.861C36.1169 18.6314 36.3069 19.5178 36.4294 20.414H50.7121C51.0766 20.4117 51.4254 20.2711 51.6827 20.0228C51.94 19.7744 52.085 19.4384 52.0862 19.0878V10.1922C52.9276 9.95918 53.6672 9.46873 54.193 8.79514C54.7188 8.12156 55.0021 7.30151 55 6.45918ZM54.9329 27.9576C54.9429 27.0394 54.6137 26.1476 54.0039 25.4412C53.3942 24.7348 52.5435 24.2596 51.6034 24.1003C50.6634 23.9411 49.6951 24.1081 48.8711 24.5717C48.0472 25.0352 47.4211 25.7652 47.1045 26.6314H36.2012C36.0117 27.5318 35.7514 28.417 35.4224 29.2794H47.1045C47.421 30.1453 48.0467 30.875 48.8702 31.3385C49.6936 31.8021 50.6614 31.9694 51.6012 31.8107C52.5409 31.6521 53.3916 31.1777 54.0017 30.472C54.6118 29.7664 54.9418 28.8753 54.9329 27.9576ZM22.1826 45.3397H20.5892C19.8638 45.3386 19.1685 45.0612 18.6551 44.5682C18.1418 44.0752 17.8523 43.4067 17.8499 42.7089V40.0135C16.2859 39.676 14.7791 39.1281 13.374 38.386L11.5031 40.1858C10.9889 40.6782 10.2929 40.9547 9.56726 40.9547C8.84167 40.9547 8.14563 40.6782 7.63143 40.1858L5.3711 37.9942C4.86025 37.499 4.57358 36.8296 4.57358 36.1319C4.57358 35.4343 4.86025 34.7649 5.3711 34.2697L7.07642 32.6292C6.18369 31.2504 5.50938 29.7514 5.07569 28.1815H2.73926C2.0139 28.1803 1.31852 27.9029 0.805197 27.4099C0.291871 26.9169 0.00236929 26.2484 3.6571e-06 25.5507V22.4506C-0.000584608 22.104 0.0698018 21.7606 0.207144 21.4402C0.344486 21.1197 0.546095 20.8285 0.800459 20.583C1.05482 20.3375 1.35696 20.1426 1.68962 20.0094C2.02228 19.8763 2.37895 19.8074 2.73926 19.8069H5.03093C5.45581 18.2213 6.12571 16.706 7.01823 15.3117L5.3711 13.7272C4.86161 13.2322 4.5758 12.5637 4.5758 11.8671C4.5758 11.1705 4.86161 10.5021 5.3711 10.0071L7.64934 7.81547C8.16353 7.32301 8.85958 7.04652 9.58517 7.04652C10.3108 7.04652 11.0068 7.32301 11.521 7.81547L13.3114 9.53776C14.7321 8.77666 16.2591 8.21551 17.8455 7.87145V5.28803C17.849 4.59026 18.1396 3.92223 18.6538 3.43004C19.168 2.93784 19.8638 2.66154 20.5892 2.66155H23.8074C24.5078 2.66618 25.1798 2.92831 25.6858 3.39422C26.1917 3.86014 26.4933 4.49455 26.5287 5.16747V13.9855C25.3195 13.5622 24.0424 13.3465 22.7555 13.3483C22.5631 13.3483 22.3706 13.3483 22.1826 13.3483C21.9946 13.3483 21.8022 13.3483 21.6142 13.3483C20.1493 13.3199 18.6932 13.5729 17.3311 14.0926C15.9691 14.6122 14.7286 15.388 13.6821 16.3746C12.6357 17.3612 11.8043 18.5387 11.2368 19.8382C10.6693 21.1376 10.3769 22.533 10.3769 23.9425C10.3769 25.352 10.6693 26.7473 11.2368 28.0468C11.8043 29.3463 12.6357 30.5238 13.6821 31.5104C14.7286 32.4969 15.9691 33.2728 17.3311 33.7924C18.6932 34.3121 20.1493 34.5651 21.6142 34.5367C21.8022 34.5367 21.9946 34.5367 22.1826 34.5367C22.3706 34.5367 22.5631 34.5367 22.7555 34.5367C24.0424 34.5385 25.3195 34.3228 26.5287 33.8994V42.8338C26.4932 43.5089 26.1897 44.1452 25.6809 44.6114C25.1721 45.0777 24.4967 45.3384 23.7939 45.3397H22.1826Z" fill="url(#paint0_linear_2147_2927)"/>
</g>
<defs>
<linearGradient id="paint0_linear_2147_2927" x1="55" y1="0.0273438" x2="13.6134" y2="56.5247" gradientUnits="userSpaceOnUse">
<stop stop-color="#FFA533"/>
<stop offset="0.32" stop-color="#FF4049"/>
<stop offset="0.66" stop-color="#C759DD"/>
<stop offset="1" stop-color="#1A8CFF"/>
</linearGradient>
<clipPath id="clip0_2147_2927">
<rect width="55" height="48" fill="white"/>
</clipPath>
</defs>
</svg>
