<svg width="65" height="48" viewBox="0 0 65 48" fill="none" xmlns="http://www.w3.org/2000/svg">
<g clip-path="url(#clip0_2147_2946)">
<path fill-rule="evenodd" clip-rule="evenodd" d="M58.6686 39.6813L55.2363 43.1248C54.3353 44.0287 52.8509 44.0287 51.9499 43.1248L49.1842 40.3501C47.7572 41.113 46.2259 41.6982 44.6113 42.0745V45.6695C44.6113 46.9497 43.5645 48 42.2884 48H37.4342C36.1582 48 35.1113 46.9497 35.1113 45.6695V41.7453C33.528 41.2645 32.0332 40.58 30.6634 39.7126L28.127 42.2574C27.2259 43.1613 25.7415 43.1613 24.8405 42.2574L23.2884 40.7054L23.3301 40.6584L30.1374 32.8413C32.627 35.7675 36.3353 37.6277 40.4707 37.6277C47.9707 37.6277 54.054 31.5245 54.054 24.0052C54.054 16.4807 47.9707 10.3775 40.4707 10.3775C36.7155 10.3775 33.3145 11.9086 30.8561 14.3801L28.3509 14.2861L22.0124 8.62182C22.0905 8.51208 22.1738 8.4128 22.2676 8.31352L25.6999 4.87002C26.6009 3.96604 28.0853 3.96604 28.9863 4.87002L31.752 7.64468C33.179 6.87655 34.7103 6.29131 36.3249 5.92031V2.32528C36.3353 1.05029 37.3822 0 38.6582 0H43.5072C44.7832 0 45.8301 1.05029 45.8301 2.3305V6.25474C47.4134 6.73547 48.9082 7.42521 50.278 8.28739L52.8145 5.74265C53.7155 4.83867 55.1999 4.83867 56.1009 5.74265L59.5332 9.18615C60.4342 10.0901 60.4342 11.5794 59.5332 12.4833L56.7676 15.258C57.5332 16.6897 58.1165 18.226 58.4863 19.8459H62.0697C63.3405 19.8459 64.3926 20.8961 64.3926 22.1764V27.0464C64.3926 28.3266 63.3457 29.3769 62.0697 29.3769H58.1634C57.6842 30.9654 57.002 32.4651 56.1374 33.8393L58.6738 36.3841C59.5749 37.288 59.5749 38.772 58.6686 39.6813ZM40.5124 19.5741C42.9499 19.5741 44.9238 21.5545 44.9238 24C44.9238 26.4455 42.9499 28.4259 40.5124 28.4259C38.0749 28.4259 36.1009 26.4455 36.1009 24C36.1009 21.5545 38.0801 19.5741 40.5124 19.5741ZM31.7155 23.7283L19.7311 37.4971L19.3301 31.0385C11.1374 29.8628 4.86133 32.1202 0.392578 38.5996C0.444661 25.8498 8.70508 19.1822 18.528 18.1581L18.1165 11.5689L31.7155 23.7283Z" fill="url(#paint0_linear_2147_2946)"/>
</g>
<defs>
<linearGradient id="paint0_linear_2147_2946" x1="64.3926" y1="0" x2="25.2098" y2="62.1949" gradientUnits="userSpaceOnUse">
<stop stop-color="#FFA533"/>
<stop offset="0.32" stop-color="#FF4049"/>
<stop offset="0.66" stop-color="#C759DD"/>
<stop offset="1" stop-color="#1A8CFF"/>
</linearGradient>
<clipPath id="clip0_2147_2946">
<rect width="64" height="48" fill="white" transform="translate(0.5)"/>
</clipPath>
</defs>
</svg>
