<svg width="59" height="48" viewBox="0 0 59 48" fill="none" xmlns="http://www.w3.org/2000/svg">
<g clip-path="url(#clip0_2147_2955)">
<path d="M31.6429 26.0672H27.3571C27.2863 26.0672 27.2297 26.0959 27.1825 26.1389C27.1353 26.1866 27.1117 26.2487 27.1117 26.3155V35.4534C27.1117 35.525 27.14 35.5823 27.1825 35.63C27.2297 35.6777 27.291 35.7016 27.3571 35.7016H31.6382C31.709 35.7016 31.7656 35.673 31.8128 35.63C31.86 35.5823 31.8836 35.5202 31.8836 35.4534V26.3155C31.8836 26.2439 31.8553 26.1866 31.8128 26.1389C31.7703 26.0863 31.709 26.0672 31.6429 26.0672ZM3.7946 6.66958H18.658V2.35846C18.658 1.7044 18.9224 1.11717 19.3424 0.692262C19.7673 0.267356 20.3525 0 20.9897 0H38.0103C38.6569 0 39.2327 0.267356 39.6576 0.692262C40.0776 1.11717 40.342 1.71394 40.342 2.35846V6.66958H55.2054C56.1164 6.66958 56.9377 7.04675 57.5277 7.65307C58.1271 8.2594 58.5 9.09011 58.5 10.002V18.0513C54.7759 20.6342 50.9338 22.8351 46.9736 24.6302C42.9899 26.4349 38.8835 27.8337 34.6354 28.7981V25.5803C34.6354 24.845 34.3381 24.1671 33.8613 23.6801C33.3846 23.1979 32.7144 22.8972 31.9827 22.8972H27.0125C26.2856 22.8972 25.6154 23.1979 25.134 23.6801C24.6572 24.1623 24.3599 24.8403 24.3599 25.5803V28.7265C20.2251 27.7669 16.2178 26.3919 12.3332 24.6302C8.26449 22.7873 4.32324 20.51 0.5 17.8365V10.002C0.5 9.08057 0.872884 8.24985 1.47233 7.65307C2.06706 7.04675 2.89307 6.66958 3.7946 6.66958ZM58.5 22.8255V44.6724C58.5 45.5938 58.1271 46.4245 57.5277 47.0213C56.9282 47.6276 56.1069 48.0048 55.2054 48.0048H3.7946C2.88363 48.0048 2.06234 47.6276 1.47233 47.0213C0.872884 46.415 0.5 45.5842 0.5 44.6724V22.625C3.75212 24.7352 7.09863 26.5781 10.5396 28.1392C14.9811 30.154 19.5879 31.696 24.3646 32.7273V36.1886C24.3646 36.9238 24.6619 37.6018 25.1387 38.0887C25.6154 38.5709 26.2904 38.8717 27.0173 38.8717H31.9875C32.7144 38.8717 33.3846 38.5709 33.8661 38.0887C34.3428 37.6065 34.6401 36.9286 34.6401 36.1886V32.5602L34.6921 32.7798C39.5584 31.7438 44.2502 30.1874 48.772 28.1345C52.1043 26.6258 55.347 24.8498 58.5 22.8255ZM36.2355 3.21305H22.7739C22.6937 3.21305 22.6276 3.24169 22.5662 3.30376C22.519 3.3515 22.4766 3.43266 22.4766 3.51383V6.57887H36.5187V3.51383C36.5187 3.43266 36.4904 3.36582 36.429 3.30376C36.3818 3.25602 36.3016 3.21305 36.2214 3.21305H36.2355Z" fill="url(#paint0_linear_2147_2955)"/>
</g>
<defs>
<linearGradient id="paint0_linear_2147_2955" x1="58.5" y1="0" x2="17.7759" y2="58.5755" gradientUnits="userSpaceOnUse">
<stop stop-color="#FFA533"/>
<stop offset="0.32" stop-color="#FF4049"/>
<stop offset="0.66" stop-color="#C759DD"/>
<stop offset="1" stop-color="#1A8CFF"/>
</linearGradient>
<clipPath id="clip0_2147_2955">
<rect width="58" height="48" fill="white" transform="translate(0.5)"/>
</clipPath>
</defs>
</svg>
