<svg width="37" height="40" viewBox="0 0 37 40" fill="none" xmlns="http://www.w3.org/2000/svg">
<path d="M13.534 29.2L16.334 26.3L12.034 22L16.334 17.7L13.534 14.8L6.33398 22L13.534 29.2ZM23.134 29.2L30.334 22L23.134 14.8L20.334 17.7L24.634 22L20.334 26.3L23.134 29.2ZM4.33398 40C3.23398 40 2.29232 39.6083 1.50898 38.825C0.725651 38.0417 0.333984 37.1 0.333984 36V8C0.333984 6.9 0.725651 5.95833 1.50898 5.175C2.29232 4.39167 3.23398 4 4.33398 4H12.734C13.1673 2.8 13.8923 1.83333 14.909 1.1C15.9257 0.366667 17.0673 0 18.334 0C19.6007 0 20.7423 0.366667 21.759 1.1C22.7757 1.83333 23.5007 2.8 23.934 4H32.334C33.434 4 34.3757 4.39167 35.159 5.175C35.9423 5.95833 36.334 6.9 36.334 8V36C36.334 37.1 35.9423 38.0417 35.159 38.825C34.3757 39.6083 33.434 40 32.334 40H4.33398ZM4.33398 36H32.334V8H4.33398V36ZM18.334 6.5C18.7673 6.5 19.1257 6.35833 19.409 6.075C19.6923 5.79167 19.834 5.43333 19.834 5C19.834 4.56667 19.6923 4.20833 19.409 3.925C19.1257 3.64167 18.7673 3.5 18.334 3.5C17.9007 3.5 17.5423 3.64167 17.259 3.925C16.9757 4.20833 16.834 4.56667 16.834 5C16.834 5.43333 16.9757 5.79167 17.259 6.075C17.5423 6.35833 17.9007 6.5 18.334 6.5Z" fill="url(#paint0_linear_2079_2812)"/>
<defs>
<linearGradient id="paint0_linear_2079_2812" x1="36.334" y1="0" x2="0.21997" y2="38.6936" gradientUnits="userSpaceOnUse">
<stop stop-color="#FFBB66"/>
<stop offset="0.32" stop-color="#FF8086"/>
<stop offset="0.66" stop-color="#CB6FDD"/>
<stop offset="1" stop-color="#80BFFF"/>
</linearGradient>
</defs>
</svg>
