<svg width="49" height="48" viewBox="0 0 49 48" fill="none" xmlns="http://www.w3.org/2000/svg">
<mask id="mask0_2079_3007" style="mask-type:alpha" maskUnits="userSpaceOnUse" x="0" y="0" width="49" height="48">
<rect x="0.666016" width="48" height="48" fill="#D9D9D9"/>
</mask>
<g mask="url(#mask0_2079_3007)">
<path d="M14.666 17L18.666 13L14.666 9L10.666 13L14.666 17ZM8.66602 28C7.56602 28 6.62435 27.6083 5.84102 26.825C5.05768 26.0417 4.66602 25.1 4.66602 24V6C4.66602 4.9 5.05768 3.95833 5.84102 3.175C6.62435 2.39167 7.56602 2 8.66602 2H40.666C41.766 2 42.7077 2.39167 43.491 3.175C44.2743 3.95833 44.666 4.9 44.666 6V24C44.666 25.1 44.2743 26.0417 43.491 26.825C42.7077 27.6083 41.766 28 40.666 28H34.216C34.416 27.3333 34.5493 26.6667 34.616 26C34.6827 25.3333 34.6827 24.6667 34.616 24H40.666V6H8.66602V24H14.716C14.6493 24.6667 14.6493 25.3333 14.716 26C14.7827 26.6667 14.916 27.3333 15.116 28H8.66602ZM33.666 14C34.4993 14 35.2077 13.7083 35.791 13.125C36.3743 12.5417 36.666 11.8333 36.666 11C36.666 10.1667 36.3743 9.45833 35.791 8.875C35.2077 8.29167 34.4993 8 33.666 8C32.8327 8 32.1243 8.29167 31.541 8.875C30.9577 9.45833 30.666 10.1667 30.666 11C30.666 11.8333 30.9577 12.5417 31.541 13.125C32.1243 13.7083 32.8327 14 33.666 14ZM10.666 46V41.8C10.666 40.6333 10.991 39.55 11.641 38.55C12.291 37.55 13.1493 36.8 14.216 36.3C15.8493 35.5333 17.5493 34.9583 19.316 34.575C21.0827 34.1917 22.866 34 24.666 34C26.466 34 28.2493 34.1917 30.016 34.575C31.7827 34.9583 33.4827 35.5333 35.116 36.3C36.1827 36.8 37.041 37.55 37.691 38.55C38.341 39.55 38.666 40.6333 38.666 41.8V46H10.666ZM14.666 42H34.666V41.8C34.666 41.4 34.5493 41.0333 34.316 40.7C34.0827 40.3667 33.7827 40.1167 33.416 39.95C32.016 39.3167 30.5827 38.8333 29.116 38.5C27.6493 38.1667 26.166 38 24.666 38C23.166 38 21.6827 38.1667 20.216 38.5C18.7493 38.8333 17.316 39.3167 15.916 39.95C15.5493 40.1167 15.2493 40.3667 15.016 40.7C14.7827 41.0333 14.666 41.4 14.666 41.8V42ZM24.666 32C22.7327 32 21.0827 31.3167 19.716 29.95C18.3493 28.5833 17.666 26.9333 17.666 25C17.666 23.0667 18.3493 21.4167 19.716 20.05C21.0827 18.6833 22.7327 18 24.666 18C26.5993 18 28.2493 18.6833 29.616 20.05C30.9827 21.4167 31.666 23.0667 31.666 25C31.666 26.9333 30.9827 28.5833 29.616 29.95C28.2493 31.3167 26.5993 32 24.666 32ZM24.666 28C25.4993 28 26.2077 27.7083 26.791 27.125C27.3743 26.5417 27.666 25.8333 27.666 25C27.666 24.1667 27.3743 23.4583 26.791 22.875C26.2077 22.2917 25.4993 22 24.666 22C23.8327 22 23.1243 22.2917 22.541 22.875C21.9577 23.4583 21.666 24.1667 21.666 25C21.666 25.8333 21.9577 26.5417 22.541 27.125C23.1243 27.7083 23.8327 28 24.666 28Z" fill="url(#paint0_linear_2079_3007)"/>
</g>
<defs>
<linearGradient id="paint0_linear_2079_3007" x1="44.666" y1="2" x2="4.97009" y2="44.961" gradientUnits="userSpaceOnUse">
<stop stop-color="#FFBB66"/>
<stop offset="0.32" stop-color="#FF8086"/>
<stop offset="0.66" stop-color="#CB6FDD"/>
<stop offset="1" stop-color="#80BFFF"/>
</linearGradient>
</defs>
</svg>
