<svg width="49" height="48" viewBox="0 0 49 48" fill="none" xmlns="http://www.w3.org/2000/svg">
<mask id="mask0_2079_2947" style="mask-type:alpha" maskUnits="userSpaceOnUse" x="0" y="0" width="49" height="48">
<rect x="0.666016" width="48" height="48" fill="#D9D9D9"/>
</mask>
<g mask="url(#mask0_2079_2947)">
<path d="M38.666 18C36.766 18 35.116 17.4333 33.716 16.3C32.316 15.1667 31.3827 13.7333 30.916 12H18.366C17.9993 13.4 17.3077 14.6083 16.291 15.625C15.2743 16.6417 14.066 17.3333 12.666 17.7V30.25C14.3993 30.7167 15.8327 31.65 16.966 33.05C18.0993 34.45 18.666 36.1 18.666 38C18.666 40.2 17.8827 42.0833 16.316 43.65C14.7493 45.2167 12.866 46 10.666 46C8.46602 46 6.58268 45.2167 5.01602 43.65C3.44935 42.0833 2.66602 40.2 2.66602 38C2.66602 36.1 3.23268 34.45 4.36602 33.05C5.49935 31.65 6.93268 30.7167 8.66602 30.25V17.7C6.93268 17.2333 5.49935 16.3 4.36602 14.9C3.23268 13.5 2.66602 11.8667 2.66602 10C2.66602 7.8 3.44935 5.91667 5.01602 4.35C6.58268 2.78333 8.46602 2 10.666 2C12.5327 2 14.166 2.56667 15.566 3.7C16.966 4.83333 17.8993 6.26667 18.366 8H30.916C31.3827 6.26667 32.316 4.83333 33.716 3.7C35.116 2.56667 36.766 2 38.666 2C40.866 2 42.7494 2.78333 44.316 4.35C45.8827 5.91667 46.666 7.8 46.666 10C46.666 12.2 45.8827 14.0833 44.316 15.65C42.7494 17.2167 40.866 18 38.666 18ZM10.666 42C11.766 42 12.7077 41.6 13.491 40.8C14.2743 40 14.666 39.0667 14.666 38C14.666 36.9 14.2743 35.9583 13.491 35.175C12.7077 34.3917 11.766 34 10.666 34C9.59935 34 8.66602 34.3917 7.86602 35.175C7.06602 35.9583 6.66602 36.9 6.66602 38C6.66602 39.0667 7.06602 40 7.86602 40.8C8.66602 41.6 9.59935 42 10.666 42ZM10.666 14C11.766 14 12.7077 13.6083 13.491 12.825C14.2743 12.0417 14.666 11.1 14.666 10C14.666 8.9 14.2743 7.95833 13.491 7.175C12.7077 6.39167 11.766 6 10.666 6C9.59935 6 8.66602 6.39167 7.86602 7.175C7.06602 7.95833 6.66602 8.9 6.66602 10C6.66602 11.1 7.06602 12.0417 7.86602 12.825C8.66602 13.6083 9.59935 14 10.666 14ZM38.666 46C36.466 46 34.5827 45.2167 33.016 43.65C31.4493 42.0833 30.666 40.2 30.666 38C30.666 35.8 31.4493 33.9167 33.016 32.35C34.5827 30.7833 36.466 30 38.666 30C40.866 30 42.7494 30.7833 44.316 32.35C45.8827 33.9167 46.666 35.8 46.666 38C46.666 40.2 45.8827 42.0833 44.316 43.65C42.7494 45.2167 40.866 46 38.666 46ZM38.666 42C39.766 42 40.7077 41.6 41.491 40.8C42.2743 40 42.666 39.0667 42.666 38C42.666 36.9 42.2743 35.9583 41.491 35.175C40.7077 34.3917 39.766 34 38.666 34C37.566 34 36.6243 34.3917 35.841 35.175C35.0577 35.9583 34.666 36.9 34.666 38C34.666 39.0667 35.0577 40 35.841 40.8C36.6243 41.6 37.566 42 38.666 42ZM38.666 14C39.766 14 40.7077 13.6083 41.491 12.825C42.2743 12.0417 42.666 11.1 42.666 10C42.666 8.9 42.2743 7.95833 41.491 7.175C40.7077 6.39167 39.766 6 38.666 6C37.566 6 36.6243 6.39167 35.841 7.175C35.0577 7.95833 34.666 8.9 34.666 10C34.666 11.1 35.0577 12.0417 35.841 12.825C36.6243 13.6083 37.566 14 38.666 14Z" fill="url(#paint0_linear_2079_2947)"/>
</g>
<defs>
<linearGradient id="paint0_linear_2079_2947" x1="46.666" y1="2" x2="7.44369" y2="48.6932" gradientUnits="userSpaceOnUse">
<stop stop-color="#FFBB66"/>
<stop offset="0.32" stop-color="#FF8086"/>
<stop offset="0.66" stop-color="#CB6FDD"/>
<stop offset="1" stop-color="#80BFFF"/>
</linearGradient>
</defs>
</svg>
