<svg width="24" height="25" viewBox="0 0 24 25" fill="none" xmlns="http://www.w3.org/2000/svg">
<mask id="mask0_2079_2669" style="mask-type:alpha" maskUnits="userSpaceOnUse" x="0" y="0" width="24" height="25">
<rect y="0.5" width="24" height="24" fill="#D9D9D9"/>
</mask>
<g mask="url(#mask0_2079_2669)">
<path d="M10 12.5C8.9 12.5 7.95833 12.1083 7.175 11.325C6.39167 10.5417 6 9.6 6 8.5C6 7.4 6.39167 6.45833 7.175 5.675C7.95833 4.89167 8.9 4.5 10 4.5C11.1 4.5 12.0417 4.89167 12.825 5.675C13.6083 6.45833 14 7.4 14 8.5C14 9.6 13.6083 10.5417 12.825 11.325C12.0417 12.1083 11.1 12.5 10 12.5ZM2 18.5V17.7C2 17.15 2.14167 16.6333 2.425 16.15C2.70833 15.6667 3.1 15.3 3.6 15.05C4.56667 14.5667 5.56667 14.1875 6.6 13.9125C7.63333 13.6375 8.69167 13.5 9.775 13.5C10.0583 13.5 10.2958 13.6 10.4875 13.8C10.6792 14 10.775 14.2417 10.775 14.525C10.775 14.8083 10.6792 15.0458 10.4875 15.2375C10.2958 15.4292 10.0583 15.525 9.775 15.525C8.84167 15.525 7.9375 15.6417 7.0625 15.875C6.1875 16.1083 5.33333 16.4333 4.5 16.85C4.33333 16.9333 4.20833 17.05 4.125 17.2C4.04167 17.35 4 17.5167 4 17.7V18.5H9.775C10.0583 18.5 10.2958 18.5958 10.4875 18.7875C10.6792 18.9792 10.775 19.2167 10.775 19.5C10.775 19.7833 10.6792 20.0208 10.4875 20.2125C10.2958 20.4042 10.0583 20.5 9.775 20.5H4C3.45 20.5 2.97917 20.3042 2.5875 19.9125C2.19583 19.5208 2 19.05 2 18.5ZM15.85 20.7L15.7 20C15.5 19.9167 15.3125 19.8292 15.1375 19.7375C14.9625 19.6458 14.7833 19.5333 14.6 19.4L13.875 19.625C13.6583 19.6917 13.4458 19.6833 13.2375 19.6C13.0292 19.5167 12.8667 19.3833 12.75 19.2L12.55 18.85C12.4333 18.65 12.3917 18.4333 12.425 18.2C12.4583 17.9667 12.5667 17.775 12.75 17.625L13.3 17.15C13.2667 16.9167 13.25 16.7 13.25 16.5C13.25 16.3 13.2667 16.0833 13.3 15.85L12.75 15.375C12.5667 15.225 12.4583 15.0375 12.425 14.8125C12.3917 14.5875 12.4333 14.375 12.55 14.175L12.775 13.8C12.8917 13.6167 13.05 13.4833 13.25 13.4C13.45 13.3167 13.6583 13.3083 13.875 13.375L14.6 13.6C14.7833 13.4667 14.9625 13.3542 15.1375 13.2625C15.3125 13.1708 15.5 13.0833 15.7 13L15.85 12.275C15.9 12.0417 16.0125 11.8542 16.1875 11.7125C16.3625 11.5708 16.5667 11.5 16.8 11.5H17.2C17.4333 11.5 17.6375 11.575 17.8125 11.725C17.9875 11.875 18.1 12.0667 18.15 12.3L18.3 13C18.5 13.0833 18.6875 13.175 18.8625 13.275C19.0375 13.375 19.2167 13.5 19.4 13.65L20.075 13.425C20.3083 13.3417 20.5333 13.3417 20.75 13.425C20.9667 13.5083 21.1333 13.65 21.25 13.85L21.45 14.2C21.5667 14.4 21.6083 14.6167 21.575 14.85C21.5417 15.0833 21.4333 15.275 21.25 15.425L20.7 15.9C20.7333 16.1 20.75 16.3083 20.75 16.525C20.75 16.7417 20.7333 16.95 20.7 17.15L21.25 17.625C21.4333 17.775 21.5417 17.9625 21.575 18.1875C21.6083 18.4125 21.5667 18.625 21.45 18.825L21.225 19.2C21.1083 19.3833 20.95 19.5167 20.75 19.6C20.55 19.6833 20.3417 19.6917 20.125 19.625L19.4 19.4C19.2167 19.5333 19.0375 19.6458 18.8625 19.7375C18.6875 19.8292 18.5 19.9167 18.3 20L18.15 20.725C18.1 20.9583 17.9875 21.1458 17.8125 21.2875C17.6375 21.4292 17.4333 21.5 17.2 21.5H16.8C16.5667 21.5 16.3625 21.425 16.1875 21.275C16.0125 21.125 15.9 20.9333 15.85 20.7ZM17 18.5C17.55 18.5 18.0208 18.3042 18.4125 17.9125C18.8042 17.5208 19 17.05 19 16.5C19 15.95 18.8042 15.4792 18.4125 15.0875C18.0208 14.6958 17.55 14.5 17 14.5C16.45 14.5 15.9792 14.6958 15.5875 15.0875C15.1958 15.4792 15 15.95 15 16.5C15 17.05 15.1958 17.5208 15.5875 17.9125C15.9792 18.3042 16.45 18.5 17 18.5ZM10 10.5C10.55 10.5 11.0208 10.3042 11.4125 9.9125C11.8042 9.52083 12 9.05 12 8.5C12 7.95 11.8042 7.47917 11.4125 7.0875C11.0208 6.69583 10.55 6.5 10 6.5C9.45 6.5 8.97917 6.69583 8.5875 7.0875C8.19583 7.47917 8 7.95 8 8.5C8 9.05 8.19583 9.52083 8.5875 9.9125C8.97917 10.3042 9.45 10.5 10 10.5Z" fill="#A0A0BD"/>
</g>
</svg>
