<svg width="41" height="44" viewBox="0 0 41 44" fill="none" xmlns="http://www.w3.org/2000/svg">
<path d="M0.330078 44V8C0.330078 6.9 0.721745 5.95833 1.50508 5.175C2.28841 4.39167 3.23008 4 4.33008 4H24.5301C24.3967 4.66667 24.3301 5.33333 24.3301 6C24.3301 6.66667 24.3967 7.33333 24.5301 8H4.33008V34.25L6.63008 32H36.3301V15.8C37.0967 15.6333 37.8134 15.4083 38.4801 15.125C39.1467 14.8417 39.7634 14.4667 40.3301 14V32C40.3301 33.1 39.9384 34.0417 39.1551 34.825C38.3717 35.6083 37.4301 36 36.3301 36H8.33008L0.330078 44ZM34.3301 12C32.6634 12 31.2467 11.4167 30.0801 10.25C28.9134 9.08333 28.3301 7.66667 28.3301 6C28.3301 4.33333 28.9134 2.91667 30.0801 1.75C31.2467 0.583333 32.6634 0 34.3301 0C35.9967 0 37.4134 0.583333 38.5801 1.75C39.7467 2.91667 40.3301 4.33333 40.3301 6C40.3301 7.66667 39.7467 9.08333 38.5801 10.25C37.4134 11.4167 35.9967 12 34.3301 12Z" fill="url(#paint0_linear_2079_2800)"/>
<defs>
<linearGradient id="paint0_linear_2079_2800" x1="40.3301" y1="0" x2="0.634149" y2="42.961" gradientUnits="userSpaceOnUse">
<stop stop-color="#FFBB66"/>
<stop offset="0.32" stop-color="#FF8086"/>
<stop offset="0.66" stop-color="#CB6FDD"/>
<stop offset="1" stop-color="#80BFFF"/>
</linearGradient>
</defs>
</svg>
