<svg width="37" height="40" viewBox="0 0 37 40" fill="none" xmlns="http://www.w3.org/2000/svg">
<path d="M4.96602 35.7C3.59935 34.1 2.54102 32.3083 1.79102 30.325C1.04102 28.3417 0.666016 26.2333 0.666016 24C0.666016 19 2.41602 14.75 5.91602 11.25C9.41602 7.75 13.666 6 18.666 6H19.066L15.866 2.8L18.666 0L26.666 8L18.666 16L15.816 13.15L18.966 10H18.666C14.7993 10 11.4993 11.3667 8.76602 14.1C6.03268 16.8333 4.66602 20.1333 4.66602 24C4.66602 25.7 4.94102 27.3 5.49102 28.8C6.04102 30.3 6.81602 31.65 7.81602 32.85L4.96602 35.7ZM16.666 35C16.666 34.2333 16.4077 33.475 15.891 32.725C15.3743 31.975 14.7993 31.1917 14.166 30.375C13.5327 29.5583 12.9577 28.7083 12.441 27.825C11.9243 26.9417 11.666 26 11.666 25C11.666 23.0667 12.3493 21.4167 13.716 20.05C15.0827 18.6833 16.7327 18 18.666 18C20.5993 18 22.2493 18.6833 23.616 20.05C24.9827 21.4167 25.666 23.0667 25.666 25C25.666 26 25.4077 26.9417 24.891 27.825C24.3743 28.7083 23.7993 29.5583 23.166 30.375C22.5327 31.1917 21.9577 31.975 21.441 32.725C20.9243 33.475 20.666 34.2333 20.666 35H16.666ZM16.666 40V37H20.666V40H16.666ZM32.366 35.7L29.516 32.85C30.516 31.65 31.291 30.3 31.841 28.8C32.391 27.3 32.666 25.7 32.666 24C32.666 21.8 32.2077 19.7583 31.291 17.875C30.3743 15.9917 29.116 14.4167 27.516 13.15L30.366 10.3C32.2994 11.9667 33.8327 13.975 34.966 16.325C36.0993 18.675 36.666 21.2333 36.666 24C36.666 26.2333 36.291 28.3417 35.541 30.325C34.791 32.3083 33.7327 34.1 32.366 35.7Z" fill="url(#paint0_linear_2079_2602)"/>
<defs>
<linearGradient id="paint0_linear_2079_2602" x1="36.666" y1="0" x2="0.552001" y2="38.6936" gradientUnits="userSpaceOnUse">
<stop stop-color="#FFA533"/>
<stop offset="0.32" stop-color="#FF4049"/>
<stop offset="0.66" stop-color="#C759DD"/>
<stop offset="1" stop-color="#1A8CFF"/>
</linearGradient>
</defs>
</svg>
