<svg width="42" height="36" viewBox="0 0 42 36" fill="none" xmlns="http://www.w3.org/2000/svg">
<path d="M21.0004 36C18.8004 36 16.9171 35.2167 15.3504 33.65C13.7837 32.0833 13.0004 30.2 13.0004 28C13.0004 25.8 13.7837 23.9167 15.3504 22.35C16.9171 20.7833 18.8004 20 21.0004 20C23.2004 20 25.0837 20.7833 26.6504 22.35C28.2171 23.9167 29.0004 25.8 29.0004 28C29.0004 30.2 28.2171 32.0833 26.6504 33.65C25.0837 35.2167 23.2004 36 21.0004 36ZM21.0004 32C22.1004 32 23.0421 31.6083 23.8254 30.825C24.6087 30.0417 25.0004 29.1 25.0004 28C25.0004 26.9 24.6087 25.9583 23.8254 25.175C23.0421 24.3917 22.1004 24 21.0004 24C19.9004 24 18.9587 24.3917 18.1754 25.175C17.3921 25.9583 17.0004 26.9 17.0004 28C17.0004 29.1 17.3921 30.0417 18.1754 30.825C18.9587 31.6083 19.9004 32 21.0004 32ZM3.10039 11.2L0.150391 8.45C2.85039 5.81667 5.98372 3.75 9.55039 2.25C13.1171 0.75 16.9337 0 21.0004 0C25.0671 0 28.8837 0.75 32.4504 2.25C36.0171 3.75 39.1504 5.81667 41.8504 8.45L38.9004 11.2C36.5337 8.96667 33.8337 7.20833 30.8004 5.925C27.7671 4.64167 24.5004 4 21.0004 4C17.5004 4 14.2337 4.64167 11.2004 5.925C8.16706 7.20833 5.46706 8.96667 3.10039 11.2ZM31.6004 18.05C30.2004 16.7833 28.6004 15.7917 26.8004 15.075C25.0004 14.3583 23.0671 14 21.0004 14C18.9337 14 17.0087 14.3583 15.2254 15.075C13.4421 15.7917 11.8337 16.7833 10.4004 18.05L7.45039 15.3C9.25039 13.6333 11.3087 12.3333 13.6254 11.4C15.9421 10.4667 18.4004 10 21.0004 10C23.6004 10 26.0504 10.4667 28.3504 11.4C30.6504 12.3333 32.7004 13.6333 34.5004 15.3L31.6004 18.05Z" fill="url(#paint0_linear_2079_2794)"/>
<defs>
<linearGradient id="paint0_linear_2079_2794" x1="41.8504" y1="0" x2="10.883" y2="42.7031" gradientUnits="userSpaceOnUse">
<stop stop-color="#FFBB66"/>
<stop offset="0.32" stop-color="#FF8086"/>
<stop offset="0.66" stop-color="#CB6FDD"/>
<stop offset="1" stop-color="#80BFFF"/>
</linearGradient>
</defs>
</svg>
