<svg width="37" height="36" viewBox="0 0 37 36" fill="none" xmlns="http://www.w3.org/2000/svg">
<path d="M18.334 17.6V2C18.334 1.43333 18.5257 0.958333 18.909 0.575C19.2923 0.191667 19.7673 0 20.334 0H34.334C34.9007 0 35.3756 0.191667 35.759 0.575C36.1423 0.958333 36.334 1.43333 36.334 2V12C36.334 12.5667 36.1423 13.0417 35.759 13.425C35.3756 13.8083 34.9007 14 34.334 14H24.334L20.034 18.3C19.7007 18.6333 19.334 18.7167 18.934 18.55C18.534 18.3833 18.334 18.0667 18.334 17.6ZM22.334 10H32.334V4H22.334V10ZM34.234 36C30.0673 36 25.9507 35.0917 21.884 33.275C17.8173 31.4583 14.1173 28.8833 10.784 25.55C7.45065 22.2167 4.87565 18.5167 3.05898 14.45C1.24232 10.3833 0.333984 6.26667 0.333984 2.1C0.333984 1.5 0.533984 1 0.933984 0.6C1.33398 0.2 1.83398 0 2.43398 0H10.534C11.0007 0 11.4173 0.158333 11.784 0.475C12.1507 0.791667 12.3673 1.16667 12.434 1.6L13.734 8.6C13.8007 9.13333 13.784 9.58333 13.684 9.95C13.584 10.3167 13.4007 10.6333 13.134 10.9L8.28398 15.8C8.95065 17.0333 9.74232 18.225 10.659 19.375C11.5757 20.525 12.584 21.6333 13.684 22.7C14.7173 23.7333 15.8007 24.6917 16.934 25.575C18.0673 26.4583 19.2673 27.2667 20.534 28L25.234 23.3C25.534 23 25.9257 22.775 26.409 22.625C26.8923 22.475 27.3673 22.4333 27.834 22.5L34.734 23.9C35.2007 24.0333 35.584 24.275 35.884 24.625C36.184 24.975 36.334 25.3667 36.334 25.8V33.9C36.334 34.5 36.134 35 35.734 35.4C35.334 35.8 34.834 36 34.234 36ZM6.38398 12L9.68398 8.7L8.83398 4H4.38398C4.55065 5.36667 4.78398 6.71667 5.08398 8.05C5.38398 9.38333 5.81732 10.7 6.38398 12ZM24.284 29.9C25.584 30.4667 26.909 30.9167 28.259 31.25C29.609 31.5833 30.9673 31.8 32.334 31.9V27.5L27.634 26.55L24.284 29.9Z" fill="url(#paint0_linear_2079_3090)"/>
<defs>
<linearGradient id="paint0_linear_2079_3090" x1="36.334" y1="0" x2="4.24299" y2="38.2036" gradientUnits="userSpaceOnUse">
<stop stop-color="#FFBB66"/>
<stop offset="0.32" stop-color="#FF8086"/>
<stop offset="0.66" stop-color="#CB6FDD"/>
<stop offset="1" stop-color="#80BFFF"/>
</linearGradient>
</defs>
</svg>
