<svg width="49" height="48" viewBox="0 0 49 48" fill="none" xmlns="http://www.w3.org/2000/svg">
<mask id="mask0_613_148013" style="mask-type:alpha" maskUnits="userSpaceOnUse" x="0" y="0" width="49" height="48">
<rect x="0.333252" width="48" height="48" fill="#D9D9D9"/>
</mask>
<g mask="url(#mask0_613_148013)">
<path d="M10.3333 42C9.76659 42 9.29159 41.8083 8.90825 41.425C8.52492 41.0417 8.33325 40.5667 8.33325 40V32C8.33325 30.9 8.72492 29.9583 9.50825 29.175C10.2916 28.3917 11.2333 28 12.3333 28H36.3333C37.4333 28 38.3749 28.3917 39.1583 29.175C39.9416 29.9583 40.3333 30.9 40.3333 32V40C40.3333 40.5667 40.1416 41.0417 39.7583 41.425C39.3749 41.8083 38.8999 42 38.3333 42H10.3333ZM18.3333 26C15.5666 26 13.2083 25.025 11.2583 23.075C9.30825 21.125 8.33325 18.7667 8.33325 16C8.33325 13.2333 9.30825 10.875 11.2583 8.925C13.2083 6.975 15.5666 6 18.3333 6H30.3333C33.0999 6 35.4583 6.975 37.4083 8.925C39.3583 10.875 40.3333 13.2333 40.3333 16C40.3333 18.7667 39.3583 21.125 37.4083 23.075C35.4583 25.025 33.0999 26 30.3333 26H18.3333ZM12.3333 38H36.3333V32H12.3333V38ZM18.3333 22H30.3333C31.9999 22 33.4166 21.4167 34.5833 20.25C35.7499 19.0833 36.3333 17.6667 36.3333 16C36.3333 14.3333 35.7499 12.9167 34.5833 11.75C33.4166 10.5833 31.9999 10 30.3333 10H18.3333C16.6666 10 15.2499 10.5833 14.0833 11.75C12.9166 12.9167 12.3333 14.3333 12.3333 16C12.3333 17.6667 12.9166 19.0833 14.0833 20.25C15.2499 21.4167 16.6666 22 18.3333 22ZM18.3333 18C18.8999 18 19.3749 17.8083 19.7583 17.425C20.1416 17.0417 20.3333 16.5667 20.3333 16C20.3333 15.4333 20.1416 14.9583 19.7583 14.575C19.3749 14.1917 18.8999 14 18.3333 14C17.7666 14 17.2916 14.1917 16.9083 14.575C16.5249 14.9583 16.3333 15.4333 16.3333 16C16.3333 16.5667 16.5249 17.0417 16.9083 17.425C17.2916 17.8083 17.7666 18 18.3333 18ZM30.3333 18C30.8999 18 31.3749 17.8083 31.7583 17.425C32.1416 17.0417 32.3333 16.5667 32.3333 16C32.3333 15.4333 32.1416 14.9583 31.7583 14.575C31.3749 14.1917 30.8999 14 30.3333 14C29.7666 14 29.2916 14.1917 28.9083 14.575C28.5249 14.9583 28.3333 15.4333 28.3333 16C28.3333 16.5667 28.5249 17.0417 28.9083 17.425C29.2916 17.8083 29.7666 18 30.3333 18Z" fill="url(#paint0_linear_613_148013)"/>
</g>
<defs>
<linearGradient id="paint0_linear_613_148013" x1="40.3333" y1="6" x2="7.80531" y2="40.4211" gradientUnits="userSpaceOnUse">
<stop stop-color="#FFBB66"/>
<stop offset="0.32" stop-color="#FF8086"/>
<stop offset="0.66" stop-color="#CB6FDD"/>
<stop offset="1" stop-color="#80BFFF"/>
</linearGradient>
</defs>
</svg>
