<svg width="49" height="48" viewBox="0 0 49 48" fill="none" xmlns="http://www.w3.org/2000/svg">
<mask id="mask0_2085_3530" style="mask-type:alpha" maskUnits="userSpaceOnUse" x="0" y="0" width="49" height="48">
<rect x="0.666016" width="48" height="48" fill="#D9D9D9"/>
</mask>
<g mask="url(#mask0_2085_3530)">
<path d="M30.666 34H40.666V30H30.666V34ZM29.666 38C28.8327 38 28.1243 37.7083 27.541 37.125C26.9577 36.5417 26.666 35.8333 26.666 35V29C26.666 28.1667 26.9577 27.4583 27.541 26.875C28.1243 26.2917 28.8327 26 29.666 26H41.666C42.4993 26 43.2077 26.2917 43.791 26.875C44.3743 27.4583 44.666 28.1667 44.666 29V35C44.666 35.8333 44.3743 36.5417 43.791 37.125C43.2077 37.7083 42.4993 38 41.666 38H29.666ZM26.666 44C26.0993 44 25.6243 43.8083 25.241 43.425C24.8577 43.0417 24.666 42.5667 24.666 42C24.666 41.4333 24.8577 40.9583 25.241 40.575C25.6243 40.1917 26.0993 40 26.666 40H44.666C45.2327 40 45.7077 40.1917 46.091 40.575C46.4743 40.9583 46.666 41.4333 46.666 42C46.666 42.5667 46.4743 43.0417 46.091 43.425C45.7077 43.8083 45.2327 44 44.666 44H26.666ZM12.666 24C12.666 25.8 13.0243 27.4583 13.741 28.975C14.4577 30.4917 15.4327 31.8 16.666 32.9V30C16.666 29.4333 16.8577 28.9583 17.241 28.575C17.6243 28.1917 18.0993 28 18.666 28C19.2327 28 19.7077 28.1917 20.091 28.575C20.4743 28.9583 20.666 29.4333 20.666 30V38C20.666 38.5667 20.4743 39.0417 20.091 39.425C19.7077 39.8083 19.2327 40 18.666 40H10.666C10.0993 40 9.62435 39.8083 9.24102 39.425C8.85768 39.0417 8.66602 38.5667 8.66602 38C8.66602 37.4333 8.85768 36.9583 9.24102 36.575C9.62435 36.1917 10.0993 36 10.666 36H14.116C12.416 34.5333 11.0827 32.7667 10.116 30.7C9.14935 28.6333 8.66602 26.4 8.66602 24C8.66602 20.8333 9.49102 17.9833 11.141 15.45C12.791 12.9167 14.9327 10.9833 17.566 9.65C18.0327 9.38333 18.516 9.375 19.016 9.625C19.516 9.875 19.8493 10.2667 20.016 10.8C20.1827 11.3333 20.1577 11.85 19.941 12.35C19.7243 12.85 19.3827 13.2333 18.916 13.5C17.0493 14.5333 15.541 15.975 14.391 17.825C13.241 19.675 12.666 21.7333 12.666 24ZM32.666 15.1V18C32.666 18.5667 32.4743 19.0417 32.091 19.425C31.7077 19.8083 31.2327 20 30.666 20C30.0993 20 29.6243 19.8083 29.241 19.425C28.8577 19.0417 28.666 18.5667 28.666 18V10C28.666 9.43333 28.8577 8.95833 29.241 8.575C29.6243 8.19167 30.0993 8 30.666 8H38.666C39.2327 8 39.7077 8.19167 40.091 8.575C40.4743 8.95833 40.666 9.43333 40.666 10C40.666 10.5667 40.4743 11.0417 40.091 11.425C39.7077 11.8083 39.2327 12 38.666 12H35.216C36.316 12.9667 37.2743 14.075 38.091 15.325C38.9077 16.575 39.5327 17.9333 39.966 19.4C40.1327 19.9333 40.066 20.4167 39.766 20.85C39.466 21.2833 39.0327 21.55 38.466 21.65C37.8993 21.75 37.391 21.6417 36.941 21.325C36.491 21.0083 36.166 20.5833 35.966 20.05C35.6327 19.0833 35.1827 18.1833 34.616 17.35C34.0493 16.5167 33.3993 15.7667 32.666 15.1Z" fill="url(#paint0_linear_2085_3530)"/>
</g>
<defs>
<linearGradient id="paint0_linear_2085_3530" x1="46.666" y1="8" x2="14.9179" y2="47.8952" gradientUnits="userSpaceOnUse">
<stop stop-color="#FFA533"/>
<stop offset="0.32" stop-color="#FF4049"/>
<stop offset="0.66" stop-color="#C759DD"/>
<stop offset="1" stop-color="#1A8CFF"/>
</linearGradient>
</defs>
</svg>
