<svg width="49" height="48" viewBox="0 0 49 48" fill="none" xmlns="http://www.w3.org/2000/svg">
<mask id="mask0_2085_3506" style="mask-type:alpha" maskUnits="userSpaceOnUse" x="0" y="0" width="49" height="48">
<rect x="0.333984" width="48" height="48" fill="#D9D9D9"/>
</mask>
<g mask="url(#mask0_2085_3506)">
<path d="M8.33398 40C7.23398 40 6.29232 39.6083 5.50898 38.825C4.72565 38.0417 4.33398 37.1 4.33398 36V12C4.33398 10.9 4.72565 9.95833 5.50898 9.175C6.29232 8.39167 7.23398 8 8.33398 8H40.334C41.434 8 42.3757 8.39167 43.159 9.175C43.9423 9.95833 44.334 10.9 44.334 12V36C44.334 37.1 43.9423 38.0417 43.159 38.825C42.3757 39.6083 41.434 40 40.334 40H8.33398ZM8.33398 36H40.334V16H8.33398V36ZM17.684 26L13.884 22.2C13.484 21.8 13.2923 21.3333 13.309 20.8C13.3257 20.2667 13.534 19.8 13.934 19.4C14.334 19.0333 14.8007 18.8417 15.334 18.825C15.8673 18.8083 16.334 19 16.734 19.4L21.934 24.6C22.334 25 22.534 25.4667 22.534 26C22.534 26.5333 22.334 27 21.934 27.4L16.734 32.6C16.3673 32.9667 15.909 33.1583 15.359 33.175C14.809 33.1917 14.334 33 13.934 32.6C13.5673 32.2333 13.384 31.7667 13.384 31.2C13.384 30.6333 13.5673 30.1667 13.934 29.8L17.684 26ZM26.334 34C25.7673 34 25.2923 33.8083 24.909 33.425C24.5257 33.0417 24.334 32.5667 24.334 32C24.334 31.4333 24.5257 30.9583 24.909 30.575C25.2923 30.1917 25.7673 30 26.334 30H34.334C34.9007 30 35.3757 30.1917 35.759 30.575C36.1423 30.9583 36.334 31.4333 36.334 32C36.334 32.5667 36.1423 33.0417 35.759 33.425C35.3757 33.8083 34.9007 34 34.334 34H26.334Z" fill="url(#paint0_linear_2085_3506)"/>
</g>
<defs>
<linearGradient id="paint0_linear_2085_3506" x1="44.334" y1="8" x2="17.5204" y2="47.9012" gradientUnits="userSpaceOnUse">
<stop stop-color="#FFA533"/>
<stop offset="0.32" stop-color="#FF4049"/>
<stop offset="0.66" stop-color="#C759DD"/>
<stop offset="1" stop-color="#1A8CFF"/>
</linearGradient>
</defs>
</svg>
