<svg width="43" height="42" viewBox="0 0 43 42" fill="none" xmlns="http://www.w3.org/2000/svg">
<path d="M4.66602 38C3.56602 38 2.62435 37.6083 1.84102 36.825C1.05768 36.0417 0.666016 35.1 0.666016 34V12C0.666016 10.9 1.05768 9.95833 1.84102 9.175C2.62435 8.39167 3.56602 8 4.66602 8H12.666V4C12.666 2.9 13.0577 1.95833 13.841 1.175C14.6243 0.391667 15.566 0 16.666 0H24.666C25.766 0 26.7077 0.391667 27.491 1.175C28.2743 1.95833 28.666 2.9 28.666 4V8H36.666C37.766 8 38.7077 8.39167 39.491 9.175C40.2743 9.95833 40.666 10.9 40.666 12V18C40.666 18.5667 40.4743 19.0333 40.091 19.4C39.7077 19.7667 39.2327 19.95 38.666 19.95C38.0993 19.95 37.6244 19.7583 37.241 19.375C36.8577 18.9917 36.666 18.5167 36.666 17.95V12H4.66602V34H17.666C18.2327 34 18.7077 34.1917 19.091 34.575C19.4743 34.9583 19.666 35.4333 19.666 36C19.666 36.5667 19.4743 37.0417 19.091 37.425C18.7077 37.8083 18.2327 38 17.666 38H4.66602ZM16.666 8H24.666V4H16.666V8ZM32.666 42C29.8993 42 27.541 41.025 25.591 39.075C23.641 37.125 22.666 34.7667 22.666 32C22.666 29.2333 23.641 26.875 25.591 24.925C27.541 22.975 29.8993 22 32.666 22C35.4327 22 37.791 22.975 39.741 24.925C41.691 26.875 42.666 29.2333 42.666 32C42.666 34.7667 41.691 37.125 39.741 39.075C37.791 41.025 35.4327 42 32.666 42ZM31.666 34.2L28.766 31.3C28.566 31.1 28.3327 31 28.066 31C27.7993 31 27.566 31.1 27.366 31.3C27.166 31.5 27.066 31.7333 27.066 32C27.066 32.2667 27.166 32.5 27.366 32.7L31.266 36.6C31.666 37 32.1327 37.2 32.666 37.2C33.1993 37.2 33.666 37 34.066 36.6L37.966 32.7C38.166 32.5 38.266 32.2667 38.266 32C38.266 31.7333 38.166 31.5 37.966 31.3C37.766 31.1 37.5327 31 37.266 31C36.9994 31 36.766 31.1 36.566 31.3L33.666 34.2V27C33.666 26.7333 33.566 26.5 33.366 26.3C33.166 26.1 32.9327 26 32.666 26C32.3993 26 32.166 26.1 31.966 26.3C31.766 26.5 31.666 26.7333 31.666 27V34.2Z" fill="url(#paint0_linear_2079_2916)"/>
<defs>
<linearGradient id="paint0_linear_2079_2916" x1="42.666" y1="0" x2="5.22652" y2="44.5708" gradientUnits="userSpaceOnUse">
<stop stop-color="#FFBB66"/>
<stop offset="0.32" stop-color="#FF8086"/>
<stop offset="0.66" stop-color="#CB6FDD"/>
<stop offset="1" stop-color="#80BFFF"/>
</linearGradient>
</defs>
</svg>
