<svg width="16" height="16" viewBox="0 0 16 16" fill="none" xmlns="http://www.w3.org/2000/svg">
<path d="M8 12.1667C8.23611 12.1667 8.43403 12.0868 8.59375 11.9271C8.75347 11.7674 8.83333 11.5694 8.83333 11.3333C8.83333 11.0972 8.75347 10.8993 8.59375 10.7396C8.43403 10.5799 8.23611 10.5 8 10.5C7.76389 10.5 7.56597 10.5799 7.40625 10.7396C7.24653 10.8993 7.16667 11.0972 7.16667 11.3333C7.16667 11.5694 7.24653 11.7674 7.40625 11.9271C7.56597 12.0868 7.76389 12.1667 8 12.1667ZM7.16667 8.83333H8.83333V3.83333H7.16667V8.83333ZM4.875 15.5L0.5 11.125V4.875L4.875 0.5H11.125L15.5 4.875V11.125L11.125 15.5H4.875ZM5.58333 13.8333H10.4167L13.8333 10.4167V5.58333L10.4167 2.16667H5.58333L2.16667 5.58333V10.4167L5.58333 13.8333Z" fill="white"/>
</svg>
