<svg width="20" height="17" viewBox="0 0 20 17" fill="none" xmlns="http://www.w3.org/2000/svg">
<path d="M15.8748 16.25L8.62479 8.95833C8.19424 9.05556 7.78104 9.1875 7.38521 9.35417C6.98938 9.52083 6.61785 9.72222 6.27063 9.95833C5.97896 10.1528 5.65604 10.2535 5.30188 10.2604C4.94771 10.2674 4.65257 10.1458 4.41646 9.89583C4.16646 9.64583 4.05188 9.34375 4.07271 8.98958C4.09354 8.63542 4.24285 8.35417 4.52063 8.14583C4.84007 7.90972 5.17688 7.69445 5.53104 7.5C5.88521 7.30556 6.24979 7.125 6.62479 6.95833L4.74979 5.08333C4.38868 5.27778 4.03799 5.48264 3.69771 5.69792C3.35743 5.9132 3.02757 6.14583 2.70813 6.39583C2.43035 6.61806 2.11438 6.72917 1.76021 6.72917C1.40604 6.72917 1.11091 6.60417 0.874794 6.35417C0.624794 6.10417 0.506739 5.80556 0.520628 5.45833C0.534517 5.11111 0.68035 4.82639 0.958128 4.60417C1.26368 4.35417 1.57618 4.11458 1.89563 3.88542C2.21507 3.65625 2.55535 3.44444 2.91646 3.25L1.74979 2.08333C1.59702 1.93056 1.52063 1.73611 1.52063 1.5C1.52063 1.26389 1.59702 1.06944 1.74979 0.916667C1.90257 0.763889 2.09702 0.6875 2.33313 0.6875C2.56924 0.6875 2.76368 0.763889 2.91646 0.916667L17.0623 15.0625C17.229 15.2292 17.3123 15.4271 17.3123 15.6562C17.3123 15.8854 17.229 16.0833 17.0623 16.25C16.8956 16.4028 16.6977 16.4826 16.4685 16.4896C16.2394 16.4965 16.0415 16.4167 15.8748 16.25ZM9.99979 15.5C9.41646 15.5 8.92341 15.2951 8.52063 14.8854C8.11785 14.4757 7.91646 13.9861 7.91646 13.4167C7.91646 12.8333 8.11785 12.3403 8.52063 11.9375C8.92341 11.5347 9.41646 11.3333 9.99979 11.3333C10.5831 11.3333 11.0762 11.5347 11.479 11.9375C11.8817 12.3403 12.0831 12.8333 12.0831 13.4167C12.0831 13.9861 11.8817 14.4757 11.479 14.8854C11.0762 15.2951 10.5831 15.5 9.99979 15.5ZM15.6873 9.77083C15.4651 9.99306 15.2047 10.1007 14.906 10.0938C14.6074 10.0868 14.347 9.97222 14.1248 9.75L11.7081 7.33333C11.5276 7.15278 11.4928 6.96528 11.604 6.77083C11.7151 6.57639 11.9095 6.51389 12.1873 6.58333C12.8123 6.73611 13.406 6.95139 13.9685 7.22917C14.531 7.50694 15.0553 7.83333 15.5415 8.20833C15.7915 8.40278 15.9338 8.65625 15.9685 8.96875C16.0033 9.28125 15.9095 9.54861 15.6873 9.77083ZM19.1248 6.35417C18.8887 6.60417 18.597 6.73264 18.2498 6.73958C17.9026 6.74653 17.5901 6.63889 17.3123 6.41667C16.3123 5.59722 15.1908 4.96181 13.9477 4.51042C12.7047 4.05903 11.3887 3.83333 9.99979 3.83333C9.70813 3.83333 9.42688 3.84375 9.15604 3.86458C8.88521 3.88542 8.6109 3.91667 8.33313 3.95833C7.98591 4.01389 7.67341 3.94097 7.39563 3.73958C7.11785 3.53819 6.95118 3.26389 6.89563 2.91667C6.84007 2.56944 6.91646 2.25694 7.12479 1.97917C7.33313 1.70139 7.61091 1.53472 7.95813 1.47917C8.29146 1.42361 8.62827 1.38542 8.96854 1.36458C9.30882 1.34375 9.65257 1.33333 9.99979 1.33333C11.7359 1.33333 13.3713 1.62153 14.906 2.19792C16.4408 2.77431 17.8192 3.56944 19.0415 4.58333C19.3192 4.81944 19.4651 5.11111 19.479 5.45833C19.4928 5.80556 19.3748 6.10417 19.1248 6.35417Z" fill="white"/>
</svg>
